{
.appVersion = "3306";
.formatVersion = 3;
customParameters = (
{
name = vendorID;
value = "????";
},
{
name = panose;
value = (
1,
1,
1,
1,
1,
1,
1,
1,
1,
1
);
},
{
name = unicodeRanges;
value = (
57
);
},
{
name = glyphOrder;
value = (
.notdef,
a_gurungkhema,
ka_gurungkhema,
kha_gurungkhema,
ga_gurungkhema,
gha_gurungkhema,
nga_gurungkhema,
ca_gurungkhema,
cha_gurungkhema,
ja_gurungkhema,
jha_gurungkhema,
ha_gurungkhema,
tta_gurungkhema,
ttha_gurungkhema,
dda_gurungkhema,
ddha_gurungkhema,
va_gurungkhema,
ta_gurungkhema,
tha_gurungkhema,
da_gurungkhema,
dha_gurungkhema,
na_gurungkhema,
pa_gurungkhema,
pha_gurungkhema,
ba_gurungkhema,
bha_gurungkhema,
ma_gurungkhema,
ya_gurungkhema,
ra_gurungkhema,
la_gurungkhema,
sa_gurungkhema,
vowelsignaacomb_gurungkhema,
vowelsignicomb_gurungkhema,
vowelsigniicomb_gurungkhema,
vowelsignucomb_gurungkhema,
vowelsignuucomb_gurungkhema,
vowelsignecomb_gurungkhema,
vowelsigneecomb_gurungkhema,
vowelsignaicomb_gurungkhema,
vowelsignocomb_gurungkhema,
vowelsignoocomb_gurungkhema,
vowelsignaucomb_gurungkhema,
vowellengthmarkcomb_gurungkhema,
consonantsignmedialya_gurungkhema,
consonantsignmedialva_gurungkhema,
consonantsignmedialha_gurungkhema,
signanusvaracomb_gurungkhema,
consonantsignmedialracomb_gurungkhema,
signtholhomacomb_gurungkhema,
zero_gurungkhema,
one_gurungkhema,
two_gurungkhema,
three_gurungkhema,
four_gurungkhema,
five_gurungkhema,
six_gurungkhema,
seven_gurungkhema,
eight_gurungkhema,
nine_gurungkhema,
space
);
}
);
date = "2002-11-29 21:56:52 +0000";
familyName = "NotoSansGurungKhema";
fontMaster = (
{
customParameters = (
{
name = typoAscender;
value = 2048;
},
{
name = typoDescender;
value = 512;
},
{
name = typoLineGap;
value = 204;
},
{
name = winAscent;
value = 1823;
},
{
name = winDescent;
value = 669;
},
{
name = hheaAscender;
value = 2048;
},
{
name = hheaDescender;
value = 512;
},
{
name = strikeoutPosition;
value = 614;
},
{
name = strikeoutSize;
value = 0;
}
);
id = m01;
metricValues = (
{
pos = 2048;
},
{

glyphs = (
{
glyphname = .notdef;
layers = (
{
hints = (
{
horizontal = 1;
place = (1297,68);
type = Stem;
},
{
horizontal = 1;
place = (0,68);
type = Stem;
},
{
place = (724,68);
type = Stem;
},
{
place = (248,68);
type = Stem;
}
);
layerId = m01;
shapes = (
{
closed = 1;
nodes = (
(792,0,l),
(792,1365,l),
(248,1365,l),
(248,0,l)
);
},
{
closed = 1;
nodes = (
(316,1297,l),
(724,1297,l),
(724,68,l),
(316,68,l)
);
}
);
width = 1108;
}
);
note = .notdef;
},
{
glyphname = a_gurungkhema;
layers = (
{
hints = (
{
horizontal = 1;
place = (923,106);
type = Stem;
},
{
horizontal = 1;
place = (745,103);
type = Stem;
},
{
horizontal = 1;
place = (98,109);
type = Stem;
},
{
place = (1032,109);
type = Stem;
},
{
place = (743,101);
type = Stem;
}
);
layerId = m01;
shapes = (
{
closed = 1;
nodes = (
(1245,923,l),
(1245,1029,l),
(0,1029,l),
(0,923,l),
(1032,923,l),
(1032,492,l),
(859,726,o),
(694,845,o),
(537,848,cs),
(478,849,o),
(423,836,o),
(373,809,cs),
(350,796,o),
(335,783,o),
(328,768,c),
(381,700,l),
(434,730,o),
(484,745,o),
(530,745,cs),
(569,745,o),
(605,735,o),
(639,716,cs),
(712,675,o),
(738,614,o),
(743,506,cs),
(746,446,o),
(733,390,o),
(706,339,cs),
(677,283,o),
(635,245,o),
(582,225,cs),
(551,213,o),
(521,207,o),
(492,207,cs),
(451,207,o),
(401,227,o),
(342,266,cs),
(329,275,o),
(311,292,o),
(287,319,cs),
(250,360,o),
(222,401,o),
(203,442,c),
(201,445,o),
(174,524,o),
(123,678,c),
(16,631,l),
(61,502,o),
(88,427,o),
(98,406,cs),
(126,346,o),
(169,283,o),
(227,217,cs),
(261,178,o),
(305,148,o),
(360,125,c),
(405,112,o),
(451,103,o),
(498,98,cs),
(548,93,o),
(593,101,o),
(633,123,c),
(655,132,o),
(678,144,o),
(702,158,cs),
(717,167,o),
(741,193,o),
(772,236,cs),
(820,301,o),
(844,382,o),
(844,479,cs),
(844,504,o),
(843,535,o),
(840,573,c),
(911,516,o),
(964,415,o),
(1001,270,cs),
(1030,157,o),
(1043,67,o),
(1040,-2,c),
(1141,-2,l),
(1141,923,l)
);
}
);
width = 1243;
}
);
note = a_gurungkhema;
unicode = 90368;
},
{
glyphname = ka_gurungkhema;
layers = (
{
hints = (
{
horizontal = 1;
place = (921,113);
type = Stem;
},
{
horizontal = 1;
place = (578,116);
type = Stem;
},
{
horizontal = 1;
place = (0,119);
type = Stem;
},
{
place = (1003,120);
type = Stem;
},
{
place = (555,111);
type = Stem;
},
{
place = (551,119);
type = Stem;
},
{
place = (45,125);
type = Stem;
}
);
layerId = m01;
shapes = (
{
closed = 1;
nodes = (
(551,262,ls),
(551,167,o),
(501,119,o),
(401,119,cs),
(336,119,o),
(281,140,o),
(236,182,cs),
(192,224,o),
(170,277,o),
(170,342,cs),
(170,461,o),
(231,535,o),
(354,565,cs),
(405,578,o),
(470,581,o),
(551,575,c)
);
},
{
closed = 1;
nodes = (
(1003,82,o),
(1002,37,o),
(1000,-2,c),
(1120,-2,l),
(1127,196,ls),
(1131,364,o),
(1095,486,o),
(1018,563,cs),
(929,652,o),
(812,695,o),
(666,694,c),
(666,921,l),
(1225,921,l),
(1225,1034,l),
(0,1034,l),
(0,921,l),
(555,921,l),
(555,694,l),
(426,691,o),
(361,689,o),
(358,688,c),
(269,676,o),
(195,639,o),
(136,578,cs),
(75,515,o),
(45,439,o),
(45,350,cs),
(45,247,o),
(78,162,o),
(143,97,cs),
(209,32,o),
(294,0,o),
(397,0,cs),
(474,0,o),
(538,20,o),
(588,61,cs),
(643,105,o),
(670,165,o),
(670,240,cs),
(670,569,l),
(805,561,l),
(828,556,o),
(867,534,o),
(920,496,c),
(962,449,o),
(987,397,o),
(995,340,c),
(999,342,l),
(1002,264,o),
(1003,195,o),
(1003,134,cs)
);
}
);
width = 1225;
}
);
note = ka_gurungkhema;
unicode = 90369;
},
{
glyphname = kha_gurungkhema;
layers = (
{
hints = (
{
horizontal = 1;
place = (922,102);
type = Stem;
},
{
horizontal = 1;
place = (578,116);
type = Stem;
},
{
horizontal = 1;
place = (0,119);
type = Stem;
},
{
place = (1282,111);
type = Stem;
},
{
place = (1010,118);
type = Stem;
},
{
place = (557,111);
type = Stem;
},
{
place = (553,119);
type = Stem;
},
{
place = (47,125);
type = Stem;
}
);
layerId = m01;
shapes = (
{
closed = 1;
nodes = (
(553,262,ls),
(553,167,o),
(503,119,o),
(403,119,cs),
(338,119,o),
(283,140,o),
(238,182,cs),
(194,224,o),
(172,277,o),
(172,342,cs),
(172,361,o),
(173,378,o),
(176,391,cs),
(201,516,o),
(304,578,o),
(485,578,cs),
(507,578,o),
(530,577,o),
(553,575,c)
);
},
{
closed = 1;
nodes = (
(963,451,o),
(988,399,o),
(997,340,c),
(1001,342,l),
(1007,129,o),
(1010,15,o),
(1010,0,c),
(1128,0,l),
(1130,177,o),
(1130,277,o),
(1128,298,cs),
(1117,414,o),
(1081,502,o),
(1020,563,cs),
(931,652,o),
(813,695,o),
(668,694,c),
(668,922,l),
(1487,922,l),
(1487,1024,l),
(2,1024,l),
(2,922,l),
(557,922,l),
(557,694,l),
(432,691,o),
(365,689,o),
(356,688,cs),
(266,674,o),
(193,637,o),
(136,577,cs),
(77,515,o),
(47,439,o),
(47,350,cs),
(47,247,o),
(80,162,o),
(145,97,cs),
(211,32,o),
(296,0,o),
(399,0,cs),
(478,0,o),
(542,20,o),
(591,60,cs),
(645,103,o),
(672,163,o),
(672,240,cs),
(672,569,l),
(749,564,o),
(794,560,o),
(805,557,cs),
(822,553,o),
(861,533,o),
(922,496,c)
);
},
{
closed = 1;
nodes = (
(1282,987,l),
(1282,0,l),
(1393,0,l),
(1393,985,l)
);
}
);
width = 1485;
}
);
note = kha_gurungkhema;
unicode = 90370;
},
{
glyphname = ga_gurungkhema;
layers = (
{
hints = (
{
horizontal = 1;
place = (920,104);
type = Stem;
},
{
horizontal = 1;
place = (754,104);
type = Stem;
},
{
horizontal = 1;
place = (461,112);
type = Stem;
},
{
horizontal = 1;
place = (197,112);
type = Stem;
},
{
horizontal = 1;
place = (0,21);
target = up;
type = BottomGhost;
},
{
place = (995,113);
type = Stem;
},
{
place = (641,121);
type = Stem;
},
{
place = (143,123);
type = Stem;
},
{
place = (109,129);
type = Stem;
}
);
layerId = m01;
shapes = (
{
closed = 1;
nodes = (
(266,920,l),
(995,920,l),
(995,160,l),
(694,385,l),
(739,441,o),
(762,515,o),
(762,606,cs),
(762,687,o),
(731,751,o),
(669,797,cs),
(614,838,o),
(544,858,o),
(459,858,cs),
(402,858,o),
(337,848,o),
(266,829,c)
);
},
{
closed = 1;
nodes = (
(481,412,o),
(508,394,o),
(528,375,c),
(487,331,o),
(438,309,o),
(379,309,cs),
(348,309,o),
(319,316,o),
(292,330,cs),
(260,347,o),
(242,369,o),
(238,397,cs),
(231,440,o),
(271,461,o),
(356,461,cs),
(378,461,o),
(408,451,o),
(447,430,cs)
);
},
{
closed = 1;
nodes = (
(2,1024,l),
(2,920,l),
(143,920,l),
(143,637,l),
(180,674,o),
(231,705,o),
(296,729,cs),
(361,753,o),
(419,761,o),
(469,754,cs),
(530,745,o),
(582,717,o),
(625,670,c),
(636,613,o),
(641,580,o),
(641,571,cs),
(641,536,o),
(625,501,o),
(594,467,c),
(541,506,o),
(501,532,o),
(475,545,cs),
(438,564,o),
(397,573,o),
(354,573,cs),
(290,573,o),
(236,561,o),
(193,537,cs),
(137,506,o),
(109,462,o),
(109,403,cs),
(109,358,o),
(131,314,o),
(174,270,cs),
(190,253,o),
(216,238,o),
(252,223,cs),
(304,201,o),
(357,192,o),
(410,197,cs),
(477,202,o),
(545,236,o),
(616,297,c),
(1014,0,l),
(1108,0,l),
(1108,920,l),
(1225,920,l),
(1225,1024,l)
);
}
);
width = 1225;
}
);
note = ga_gurungkhema;
unicode = 90371;
},
{
glyphname = gha_gurungkhema;
layers = (
{
hints = (
{
horizontal = 1;
place = (920,104);
type = Stem;
},
{
horizontal = 1;
place = (754,104);
type = Stem;
},
{
horizontal = 1;
place = (461,112);
type = Stem;
},
{
horizontal = 1;
place = (197,112);
type = Stem;
},
{
horizontal = 1;
place = (0,21);
target = up;
type = BottomGhost;
},
{
place = (1225,110);
type = Stem;
},
{
place = (995,113);
type = Stem;
},
{
place = (641,121);
type = Stem;
},
{
place = (143,123);
type = Stem;
},
{
place = (109,129);
type = Stem;
}
);
layerId = m01;
shapes = (
{
closed = 1;
nodes = (
(1225,0,l),
(1335,0,l),
(1335,920,l),
(1225,920,l)
);
},
{
closed = 1;
nodes = (
(266,920,l),
(995,920,l),
(995,160,l),
(694,385,l),
(739,441,o),
(762,515,o),
(762,606,cs),
(762,687,o),
(731,751,o),
(669,797,cs),
(614,838,o),
(544,858,o),
(459,858,cs),
(402,858,o),
(337,848,o),
(266,829,c)
);
},
{
closed = 1;
nodes = (
(481,412,o),
(508,394,o),
(528,375,c),
(487,331,o),
(438,309,o),
(379,309,cs),
(348,309,o),
(319,316,o),
(292,330,cs),
(260,347,o),
(242,369,o),
(238,397,cs),
(231,440,o),
(271,461,o),
(356,461,cs),
(378,461,o),
(408,451,o),
(447,430,cs)
);
},
{
closed = 1;
nodes = (
(2,1024,l),
(2,920,l),
(143,920,l),
(143,637,l),
(180,674,o),
(231,705,o),
(296,729,cs),
(361,753,o),
(419,761,o),
(469,754,cs),
(530,745,o),
(582,717,o),
(625,670,c),
(636,613,o),
(641,580,o),
(641,571,cs),
(641,536,o),
(625,501,o),
(594,467,c),
(541,506,o),
(501,532,o),
(475,545,cs),
(438,564,o),
(397,573,o),
(354,573,cs),
(290,573,o),
(236,561,o),
(193,537,cs),
(137,506,o),
(109,462,o),
(109,403,cs),
(109,358,o),
(131,314,o),
(174,270,cs),
(190,253,o),
(216,238,o),
(252,223,cs),
(305,201,o),
(358,192,o),
(410,197,cs),
(477,202,o),
(545,236,o),
(616,297,c),
(1014,0,l),
(1108,0,l),
(1108,920,l),
(1410,920,l),
(1410,1024,l)
);
}
);
width = 1413;
}
);
note = gha_gurungkhema;
unicode = 90372;
},
{
glyphname = nga_gurungkhema;
layers = (
{
hints = (
{
horizontal = 1;
place = (930,94);
type = Stem;
},
{
horizontal = 1;
place = (770,109);
type = Stem;
},
{
horizontal = 1;
place = (440,115);
type = Stem;
},
{
horizontal = 1;
place = (199,110);
type = Stem;
},
{
horizontal = 1;
place = (0,229);
type = Stem;
},
{
horizontal = 1;
place = (0,21);
target = up;
type = BottomGhost;
},
{
place = (829,125);
type = Stem;
},
{
place = (248,103);
type = Stem;
},
{
place = (240,137);
type = Stem;
}
);
layerId = m01;
shapes = (
{
closed = 1;
nodes = (
(834,348,l),
(827,348,l),
(837,352,o),
(847,357,o),
(856,362,c),
(921,428,o),
(954,503,o),
(954,586,cs),
(954,731,o),
(869,824,o),
(698,864,cs),
(639,878,o),
(596,883,o),
(569,879,cs),
(485,866,o),
(412,852,o),
(350,836,c),
(352,930,l),
(1251,930,l),
(1251,1024,l),
(0,1024,l),
(2,930,l),
(248,930,l),
(248,692,l),
(407,744,o),
(514,770,o),
(567,770,cs),
(635,770,o),
(702,752,o),
(768,717,cs),
(809,695,o),
(829,661,o),
(829,616,cs),
(829,611,o),
(828,601,o),
(827,588,cs),
(827,541,o),
(802,491,o),
(752,438,c),
(682,516,o),
(597,555,o),
(498,555,cs),
(326,555,o),
(240,496,o),
(240,377,cs),
(240,342,o),
(250,314,o),
(270,295,cs),
(327,239,o),
(410,207,o),
(518,199,cs),
(535,198,o),
(567,202,o),
(614,213,cs),
(678,228,o),
(723,247,o),
(750,270,c),
(1018,-2,l),
(1106,0,l),
(1243,229,l),
(1116,229,l),
(1044,135,l)
);
},
{
closed = 1;
nodes = (
(558,435,o),
(578,432,o),
(561,432,c),
(598,424,o),
(637,399,o),
(680,356,c),
(610,325,o),
(564,309,o),
(541,309,cs),
(431,309,o),
(376,332,o),
(377,377,cs),
(378,419,o),
(419,440,o),
(500,440,c)
);
}
);
width = 1249;
}
);
note = nga_gurungkhema;
unicode = 90373;
},
{
glyphname = ca_gurungkhema;
layers = (
{
hints = (
{
horizontal = 1;
place = (926,98);
type = Stem;
},
{
horizontal = 1;
place = (694,117);
type = Stem;
},
{
horizontal = 1;
place = (385,104);
type = Stem;
},
{
horizontal = 1;
place = (156,104);
type = Stem;
},
{
horizontal = 1;
place = (0,21);
target = up;
type = BottomGhost;
},
{
place = (842,104);
type = Stem;
},
{
place = (530,112);
type = Stem;
},
{
place = (53,127);
type = Stem;
}
);
layerId = m01;
shapes = (
{
closed = 1;
nodes = (
(646,498,o),
(646,558,o),
(631,635,c),
(600,691,o),
(576,729,o),
(557,748,cs),
(516,790,o),
(443,811,o),
(338,811,cs),
(211,811,o),
(109,773,o),
(33,698,c),
(113,621,l),
(166,655,ls),
(209,680,o),
(249,693,o),
(287,694,cs),
(375,694,ls),
(413,695,o),
(448,680,o),
(481,650,cs),
(514,620,o),
(530,586,o),
(530,549,cs),
(530,508,o),
(514,461,o),
(481,408,c),
(447,427,o),
(412,446,o),
(377,467,c),
(348,480,o),
(305,488,o),
(248,489,cs),
(204,490,o),
(161,476,o),
(119,446,cs),
(72,414,o),
(50,377,o),
(53,334,cs),
(54,315,o),
(59,296,o),
(66,276,cs),
(79,241,o),
(105,212,o),
(146,189,cs),
(184,167,o),
(223,156,o),
(262,156,cs),
(356,156,o),
(438,188,o),
(508,252,c),
(874,0,l),
(946,-2,l),
(946,926,l),
(1024,926,l),
(1024,1024,l),
(0,1024,l),
(0,926,l),
(842,926,l),
(842,152,l),
(580,338,l),
(600,371,o),
(611,388,o),
(612,391,cs),
(619,418,o),
(626,439,o),
(631,455,cs)
);
},
{
closed = 1;
nodes = (
(369,278,o),
(322,260,o),
(283,260,cs),
(214,260,o),
(180,283,o),
(180,328,cs),
(180,366,o),
(211,385,o),
(274,385,cs),
(315,385,o),
(365,361,o),
(422,313,c)
);
}
);
width = 1024;
}
);
note = ca_gurungkhema;
unicode = 90374;
},
{
glyphname = cha_gurungkhema;
layers = (
{
hints = (
{
horizontal = 1;
place = (922,102);
type = Stem;
},
{
horizontal = 1;
place = (694,117);
type = Stem;
},
{
horizontal = 1;
place = (385,104);
type = Stem;
},
{
horizontal = 1;
place = (156,104);
type = Stem;
},
{
horizontal = 1;
place = (0,21);
target = up;
type = BottomGhost;
},
{
place = (1057,98);
type = Stem;
},
{
place = (841,105);
type = Stem;
},
{
place = (530,112);
type = Stem;
},
{
place = (53,127);
type = Stem;
}
);
layerId = m01;
shapes = (
{
closed = 1;
nodes = (
(1155,922,l),
(1231,922,l),
(1231,1024,l),
(0,1024,l),
(0,922,l),
(842,922,l),
(840,152,l),
(580,338,l),
(600,371,o),
(611,388,o),
(612,391,cs),
(619,418,o),
(626,439,o),
(631,455,cs),
(646,498,o),
(646,558,o),
(631,635,c),
(600,691,o),
(576,729,o),
(557,748,cs),
(516,790,o),
(443,811,o),
(338,811,cs),
(211,811,o),
(109,773,o),
(33,698,c),
(113,621,l),
(166,655,ls),
(209,680,o),
(249,693,o),
(287,694,cs),
(375,694,ls),
(413,695,o),
(448,680,o),
(481,650,cs),
(514,620,o),
(530,586,o),
(530,549,cs),
(530,508,o),
(514,461,o),
(481,408,c),
(447,427,o),
(412,446,o),
(377,467,c),
(348,480,o),
(305,488,o),
(248,489,cs),
(204,490,o),
(161,476,o),
(119,446,cs),
(72,414,o),
(50,377,o),
(53,334,cs),
(54,315,o),
(59,296,o),
(66,276,cs),
(79,241,o),
(105,212,o),
(146,189,cs),
(184,167,o),
(223,156,o),
(262,156,cs),
(356,156,o),
(438,188,o),
(508,252,c),
(874,0,l),
(946,-2,l),
(946,922,l),
(1057,922,l),
(1057,0,l),
(1155,0,l)
);
},
{
closed = 1;
nodes = (
(369,278,o),
(322,260,o),
(283,260,cs),
(214,260,o),
(180,283,o),
(180,328,cs),
(180,366,o),
(211,385,o),
(274,385,cs),
(315,385,o),
(365,361,o),
(422,313,c)
);
}
);
width = 1229;
}
);
note = cha_gurungkhema;
unicode = 90375;
},
{
glyphname = ja_gurungkhema;
layers = (
{
hints = (
{
horizontal = 1;
place = (922,104);
type = Stem;
},
{
horizontal = 1;
place = (518,113);
type = Stem;
},
{
horizontal = 1;
place = (309,103);
type = Stem;
},
{
horizontal = 1;
place = (84,96);
type = Stem;
},
{
horizontal = 1;
place = (0,21);
target = up;
type = BottomGhost;
},
{
place = (752,106);
type = Stem;
},
{
place = (545,110);
type = Stem;
},
{
place = (369,114);
type = Stem;
},
{
place = (90,125);
type = Stem;
}
);
layerId = m01;
shapes = (
{
closed = 1;
nodes = (
(483,855,o),
(439,908,o),
(350,922,c),
(752,922,l),
(752,147,l),
(625,250,l),
(645,292,o),
(655,334,o),
(655,377,cs),
(655,394,o),
(654,407,o),
(653,418,cs),
(645,483,o),
(610,531,o),
(548,564,cs),
(498,591,o),
(437,605,o),
(365,606,c),
(444,620,o),
(483,672,o),
(483,762,cs)
);
},
{
closed = 1;
nodes = (
(545,386,o),
(541,359,o),
(532,315,c),
(453,380,o),
(372,412,o),
(287,412,cs),
(200,412,o),
(138,378,o),
(102,311,cs),
(94,296,o),
(90,281,o),
(90,266,cs),
(90,208,o),
(122,162,o),
(186,127,cs),
(239,98,o),
(297,84,o),
(360,84,cs),
(452,84,o),
(525,105,o),
(578,147,c),
(768,-2,l),
(858,0,l),
(858,922,l),
(1003,922,l),
(1003,1026,l),
(2,1026,l),
(2,922,l),
(154,922,l),
(114,907,o),
(78,879,o),
(47,840,c),
(121,768,l),
(151,806,o),
(201,825,o),
(270,825,cs),
(336,825,o),
(369,800,o),
(369,750,cs),
(369,709,o),
(345,677,o),
(297,655,cs),
(260,638,o),
(218,630,o),
(172,631,c),
(170,518,l),
(420,522,o),
(545,482,o),
(545,397,cs)
);
},
{
closed = 1;
nodes = (
(364,309,o),
(425,279,o),
(485,219,c),
(443,193,o),
(405,180,o),
(371,180,cs),
(350,180,o),
(320,186,o),
(283,197,cs),
(238,211,o),
(215,231,o),
(215,256,cs),
(215,291,o),
(244,309,o),
(303,309,cs)
);
}
);
width = 1001;
}
);
note = ja_gurungkhema;
unicode = 90376;
},
{
glyphname = jha_gurungkhema;
layers = (
{
hints = (
{
horizontal = 1;
place = (922,104);
type = Stem;
},
{
horizontal = 1;
place = (518,113);
type = Stem;
},
{
horizontal = 1;
place = (309,103);
type = Stem;
},
{
horizontal = 1;
place = (84,96);
type = Stem;
},
{
horizontal = 1;
place = (0,21);
target = up;
type = BottomGhost;
},
{
place = (1009,96);
type = Stem;
},
{
place = (752,106);
type = Stem;
},
{
place = (545,110);
type = Stem;
},
{
place = (369,114);
type = Stem;
},
{
place = (90,125);
type = Stem;
}
);
layerId = m01;
shapes = (
{
closed = 1;
nodes = (
(483,855,o),
(439,908,o),
(350,922,c),
(752,922,l),
(752,147,l),
(625,250,l),
(645,292,o),
(655,334,o),
(655,377,cs),
(655,394,o),
(654,407,o),
(653,418,cs),
(645,483,o),
(610,531,o),
(548,564,cs),
(498,591,o),
(437,605,o),
(365,606,c),
(444,620,o),
(483,672,o),
(483,762,cs)
);
},
{
closed = 1;
nodes = (
(545,386,o),
(541,359,o),
(532,315,c),
(453,380,o),
(372,412,o),
(287,412,cs),
(200,412,o),
(138,378,o),
(102,311,cs),
(94,296,o),
(90,281,o),
(90,266,cs),
(90,208,o),
(122,162,o),
(186,127,cs),
(239,98,o),
(297,84,o),
(360,84,cs),
(452,84,o),
(525,105,o),
(578,147,c),
(768,-2,l),
(858,0,l),
(858,922,l),
(1233,922,l),
(1233,1026,l),
(2,1026,l),
(2,922,l),
(154,922,l),
(114,907,o),
(78,879,o),
(47,840,c),
(121,768,l),
(151,806,o),
(201,825,o),
(270,825,cs),
(336,825,o),
(369,800,o),
(369,750,cs),
(369,709,o),
(345,677,o),
(297,655,cs),
(260,638,o),
(218,630,o),
(172,631,c),
(170,518,l),
(420,522,o),
(545,482,o),
(545,397,cs)
);
},
{
closed = 1;
nodes = (
(364,309,o),
(425,279,o),
(485,219,c),
(443,193,o),
(405,180,o),
(371,180,cs),
(350,180,o),
(320,186,o),
(283,197,cs),
(238,211,o),
(215,231,o),
(215,256,cs),
(215,291,o),
(244,309,o),
(303,309,cs)
);
},
{
closed = 1;
nodes = (
(1009,951,l),
(1009,0,l),
(1105,0,l),
(1105,951,l)
);
}
);
width = 1229;
}
);
note = jha_gurungkhema;
unicode = 90377;
},
{
glyphname = ha_gurungkhema;
layers = (
{
hints = (
{
horizontal = 1;
place = (920,106);
type = Stem;
},
{
place = (973,114);
type = Stem;
},
{
place = (897,113);
type = Stem;
},
{
place = (451,139);
type = Stem;
},
{
place = (20,115);
type = Stem;
}
);
layerId = m01;
shapes = (
{
closed = 1;
nodes = (
(897,189,o),
(898,174,o),
(901,158,c),
(928,84,o),
(952,32,o),
(971,2,c),
(1073,70,l),
(1031,120,o),
(1010,167,o),
(1010,211,cs),
(1010,242,o),
(1017,279,o),
(1032,322,cs),
(1069,432,l),
(1081,484,o),
(1087,531,o),
(1087,573,cs),
(1087,603,o),
(1081,645,o),
(1069,698,cs),
(1046,802,o),
(979,876,o),
(870,920,c),
(1147,920,l),
(1147,1026,l),
(2,1026,l),
(2,920,l),
(221,920,l),
(87,869,o),
(20,766,o),
(20,610,cs),
(20,583,o),
(29,536,o),
(47,469,cs),
(68,392,o),
(82,337,o),
(90,305,c),
(197,350,l),
(192,369,o),
(181,406,o),
(162,459,cs),
(148,498,o),
(140,527,o),
(139,545,cs),
(134,598,o),
(134,637,o),
(138,660,cs),
(144,698,o),
(160,731,o),
(186,760,cs),
(215,792,o),
(247,808,o),
(283,808,cs),
(374,808,o),
(430,746,o),
(451,621,c),
(451,373,l),
(590,373,l),
(590,612,l),
(609,739,o),
(667,808,o),
(764,817,cs),
(810,822,o),
(852,809,o),
(891,778,cs),
(946,735,o),
(973,660,o),
(973,551,cs),
(973,536,o),
(966,493,o),
(952,422,cs),
(947,396,o),
(935,357,o),
(917,305,cs),
(904,267,o),
(897,233,o),
(897,203,cs)
);
},
{
closed = 1;
nodes = (
(440,884,o),
(402,907,o),
(354,920,c),
(702,920,l),
(657,917,o),
(614,893,o),
(573,850,cs),
(558,835,o),
(539,803,o),
(514,754,c),
(487,814,o),
(471,846,o),
(467,850,cs)
);
}
);
width = 1147;
}
);
note = ha_gurungkhema;
unicode = 90378;
},
{
glyphname = tta_gurungkhema;
layers = (
{
hints = (
{
horizontal = 1;
place = (920,106);
type = Stem;
},
{
horizontal = 1;
place = (702,119);
type = Stem;
},
{
horizontal = 1;
place = (271,141);
type = Stem;
},
{
horizontal = 1;
place = (170,127);
type = Stem;
},
{
horizontal = 1;
place = (0,21);
target = up;
type = BottomGhost;
},
{
place = (649,109);
type = Stem;
},
{
place = (25,118);
type = Stem;
}
);
layerId = m01;
shapes = (
{
closed = 1;
nodes = (
(2,1026,l),
(2,920,l),
(649,920,l),
(653,865,o),
(622,832,o),
(557,821,c),
(469,820,o),
(417,818,o),
(401,817,cs),
(206,801,o),
(85,725,o),
(39,588,cs),
(30,560,o),
(25,530,o),
(25,498,cs),
(25,442,o),
(41,386,o),
(74,330,cs),
(136,223,o),
(249,170,o),
(412,170,cs),
(502,170,o),
(580,186,o),
(647,219,cs),
(743,266,ls),
(766,277,o),
(786,273,o),
(803,254,cs),
(812,245,o),
(824,222,o),
(840,186,cs),
(924,0,l),
(1042,0,l),
(928,254,ls),
(885,351,o),
(852,402,o),
(829,408,cs),
(819,411,o),
(806,412,o),
(791,412,cs),
(774,412,o),
(760,411,o),
(748,408,c),
(681,381,o),
(629,359,o),
(590,340,cs),
(534,313,o),
(477,298,o),
(418,297,cs),
(350,296,o),
(297,304,o),
(260,322,cs),
(182,360,o),
(143,419,o),
(143,498,cs),
(143,508,o),
(144,523,o),
(147,543,cs),
(156,606,o),
(206,651,o),
(297,678,cs),
(362,697,o),
(432,705,o),
(508,702,cs),
(561,700,o),
(602,702,o),
(629,707,cs),
(712,724,o),
(755,795,o),
(758,920,c),
(1108,920,l),
(1108,1026,l)
);
}
);
width = 1106;
}
);
note = tta_gurungkhema;
unicode = 90379;
},
{
glyphname = ttha_gurungkhema;
layers = (
{
hints = (
{
horizontal = 1;
place = (920,106);
type = Stem;
},
{
horizontal = 1;
place = (702,117);
type = Stem;
},
{
horizontal = 1;
place = (273,139);
type = Stem;
},
{
horizontal = 1;
place = (170,127);
type = Stem;
},
{
horizontal = 1;
place = (0,21);
target = up;
type = BottomGhost;
},
{
place = (1171,103);
type = Stem;
},
{
place = (649,109);
type = Stem;
},
{
place = (23,120);
type = Stem;
}
);
layerId = m01;
shapes = (
{
closed = 1;
nodes = (
(2,1026,l),
(2,920,l),
(649,920,l),
(653,865,o),
(623,832,o),
(559,821,c),
(401,817,ls),
(209,812,o),
(88,736,o),
(39,588,cs),
(28,556,o),
(23,526,o),
(23,498,cs),
(23,453,o),
(35,407,o),
(59,360,cs),
(97,285,o),
(142,237,o),
(195,215,cs),
(267,185,o),
(339,170,o),
(412,170,cs),
(502,170,o),
(580,186,o),
(647,219,cs),
(743,266,ls),
(767,278,o),
(787,274,o),
(803,254,c),
(811,246,o),
(823,223,o),
(840,186,cs),
(924,-2,l),
(1042,0,l),
(928,254,ls),
(885,349,o),
(852,401,o),
(829,408,cs),
(820,411,o),
(808,412,o),
(791,412,cs),
(774,412,o),
(760,411,o),
(748,408,c),
(681,381,o),
(629,359,o),
(590,340,cs),
(534,313,o),
(477,298,o),
(418,297,cs),
(350,296,o),
(297,304,o),
(260,322,cs),
(182,360,o),
(143,419,o),
(143,498,cs),
(143,508,o),
(144,523,o),
(147,543,cs),
(156,606,o),
(206,651,o),
(297,678,cs),
(362,697,o),
(432,705,o),
(508,702,cs),
(561,700,o),
(602,702,o),
(629,707,cs),
(712,724,o),
(755,795,o),
(758,920,c),
(1171,920,l),
(1171,0,l),
(1274,0,l),
(1274,920,l),
(1352,920,l),
(1352,1026,l)
);
}
);
width = 1352;
}
);
note = ttha_gurungkhema;
unicode = 90380;
},
{
glyphname = dda_gurungkhema;
layers = (
{
hints = (
{
horizontal = 1;
place = (922,102);
type = Stem;
},
{
horizontal = 1;
place = (242,108);
type = Stem;
},
{
horizontal = 1;
place = (0,21);
target = up;
type = BottomGhost;
},
{
place = (934,88);
type = Stem;
},
{
place = (549,123);
type = Stem;
},
{
place = (43,121);
type = Stem;
}
);
layerId = m01;
shapes = (
{
closed = 1;
nodes = (
(531,858,o),
(512,841,o),
(483,836,cs),
(348,811,ls),
(286,800,o),
(238,784,o),
(203,764,cs),
(96,703,o),
(43,620,o),
(43,516,cs),
(43,495,o),
(45,476,o),
(49,461,cs),
(72,373,o),
(122,312,o),
(201,279,cs),
(259,254,o),
(340,242,o),
(444,242,cs),
(461,242,o),
(487,244,o),
(521,247,cs),
(555,250,o),
(581,252,o),
(598,252,cs),
(652,252,o),
(698,234,o),
(735,197,cs),
(934,0,l),
(1022,-2,l),
(1022,922,l),
(1147,922,l),
(1147,1024,l),
(2,1024,l),
(2,922,l),
(549,922,l),
(549,908,o),
(546,896,o),
(541,885,cs)
);
},
{
closed = 1;
nodes = (
(584,367,o),
(551,364,o),
(508,358,cs),
(465,353,o),
(432,350,o),
(410,350,cs),
(268,350,o),
(187,395,o),
(168,485,cs),
(165,498,o),
(164,509,o),
(164,520,cs),
(164,639,o),
(284,715,o),
(524,748,cs),
(567,754,o),
(604,774,o),
(637,807,cs),
(658,828,o),
(669,867,o),
(672,922,c),
(934,922,l),
(934,135,l),
(930,142,o),
(899,174,o),
(840,233,cs),
(762,311,l),
(711,348,o),
(659,367,o),
(606,367,cs)
);
}
);
width = 1147;
}
);
note = dda_gurungkhema;
unicode = 90381;
},
{
glyphname = ddha_gurungkhema;
layers = (
{
hints = (
{
horizontal = 1;
place = (922,102);
type = Stem;
},
{
horizontal = 1;
place = (242,108);
type = Stem;
},
{
horizontal = 1;
place = (0,21);
target = up;
type = BottomGhost;
},
{
place = (1169,101);
type = Stem;
},
{
place = (934,109);
type = Stem;
},
{
place = (549,123);
type = Stem;
},
{
place = (43,121);
type = Stem;
}
);
layerId = m01;
shapes = (
{
closed = 1;
nodes = (
(549,922,l),
(548,873,o),
(525,844,o),
(481,836,cs),
(330,807,o),
(237,783,o),
(203,764,cs),
(96,702,o),
(43,619,o),
(43,516,cs),
(43,495,o),
(45,476,o),
(49,461,cs),
(72,373,o),
(122,312,o),
(201,279,cs),
(259,254,o),
(340,242,o),
(444,242,cs),
(461,242,o),
(487,244,o),
(522,247,cs),
(557,250,o),
(583,252,o),
(600,252,cs),
(653,252,o),
(698,234,o),
(735,197,cs),
(934,0,l),
(1044,-2,l),
(1042,922,l),
(1169,922,l),
(1169,-2,l),
(1270,-2,l),
(1270,922,l),
(1374,922,l),
(1374,1024,l),
(0,1024,l),
(-1,922,l)
);
},
{
closed = 1;
nodes = (
(762,311,l),
(711,348,o),
(659,367,o),
(606,367,cs),
(584,367,o),
(551,364,o),
(508,358,cs),
(465,353,o),
(432,350,o),
(410,350,cs),
(268,350,o),
(187,395,o),
(168,485,cs),
(165,498,o),
(164,509,o),
(164,520,cs),
(164,639,o),
(284,715,o),
(524,748,cs),
(567,754,o),
(604,774,o),
(637,807,cs),
(658,828,o),
(669,867,o),
(672,922,c),
(934,922,l),
(934,135,l),
(930,142,o),
(899,174,o),
(840,233,cs)
);
}
);
width = 1372;
}
);
note = ddha_gurungkhema;
unicode = 90382;
},
{
glyphname = va_gurungkhema;
layers = (
{
hints = (
{
horizontal = 1;
place = (921,105);
type = Stem;
},
{
horizontal = 1;
place = (692,125);
type = Stem;
},
{
horizontal = 1;
place = (582,108);
type = Stem;
},
{
horizontal = 1;
place = (0,21);
target = up;
type = BottomGhost;
},
{
place = (868,115);
type = Stem;
},
{
place = (856,119);
type = Stem;
},
{
place = (535,118);
type = Stem;
},
{
place = (39,131);
type = Stem;
}
);
layerId = m01;
shapes = (
{
closed = 1;
nodes = (
(656,835,o),
(613,887,o),
(524,920,c),
(1108,922,l),
(1108,1026,l),
(2,1026,l),
(0,920,l),
(231,920,l),
(150,887,o),
(89,831,o),
(47,752,cs),
(42,742,o),
(39,717,o),
(39,678,cs),
(39,559,o),
(88,479,o),
(186,438,cs),
(209,429,o),
(303,403,o),
(467,362,cs),
(581,333,o),
(665,290,o),
(719,233,c),
(792,135,o),
(846,57,o),
(881,0,c),
(983,0,l),
(983,592,l),
(868,592,l),
(868,197,l),
(799,294,o),
(752,354,o),
(729,377,cs),
(700,406,o),
(661,429,o),
(612,444,cs),
(533,469,o),
(488,482,o),
(479,483,cs),
(399,491,o),
(345,500,o),
(317,510,cs),
(227,541,o),
(178,590,o),
(170,657,c),
(221,607,o),
(299,582,o),
(406,582,cs),
(565,582,o),
(648,643,o),
(653,764,cs)
);
},
{
closed = 1;
nodes = (
(975,797,o),
(956,817,o),
(917,817,cs),
(885,817,o),
(856,788,o),
(856,756,cs),
(856,713,o),
(876,692,o),
(915,692,cs),
(955,692,o),
(975,713,o),
(975,756,cs)
);
},
{
closed = 1;
nodes = (
(319,693,o),
(255,721,o),
(197,772,c),
(258,823,o),
(322,848,o),
(389,848,cs),
(438,848,o),
(478,834,o),
(508,807,cs),
(526,791,o),
(535,777,o),
(535,766,cs),
(535,737,o),
(516,715,o),
(479,702,cs),
(452,692,o),
(422,688,o),
(389,690,cs)
);
}
);
width = 1106;
}
);
note = va_gurungkhema;
unicode = 90383;
},
{
glyphname = ta_gurungkhema;
layers = (
{
hints = (
{
horizontal = 1;
place = (924,102);
type = Stem;
},
{
horizontal = 1;
place = (0,21);
target = up;
type = BottomGhost;
},
{
place = (0,1085);
type = Stem;
}
);
layerId = m01;
shapes = (
{
closed = 1;
nodes = (
(549,547,l),
(764,924,l),
(1085,924,l),
(1085,1026,l),
(0,1026,l),
(0,924,l),
(643,924,l),
(92,-2,l),
(225,-2,l),
(489,451,l),
(883,-2,l),
(1024,0,l)
);
}
);
width = 1085;
}
);
note = ta_gurungkhema;
unicode = 90384;
},
{
glyphname = tha_gurungkhema;
layers = (
{
hints = (
{
horizontal = 1;
place = (924,102);
type = Stem;
},
{
horizontal = 1;
place = (0,21);
target = up;
type = BottomGhost;
},
{
place = (1141,100);
type = Stem;
}
);
layerId = m01;
shapes = (
{
closed = 1;
nodes = (
(1241,924,l),
(1331,924,l),
(1331,1026,l),
(0,1026,l),
(0,924,l),
(637,924,l),
(86,-2,l),
(219,-2,l),
(483,451,l),
(877,-2,l),
(1018,0,l),
(543,547,l),
(758,924,l),
(1141,924,l),
(1141,0,l),
(1241,0,l)
);
}
);
width = 1331;
}
);
note = tha_gurungkhema;
unicode = 90385;
},
{
glyphname = da_gurungkhema;
layers = (
{
hints = (
{
horizontal = 1;
place = (920,106);
type = Stem;
},
{
horizontal = 1;
place = (760,98);
type = Stem;
},
{
horizontal = 1;
place = (498,96);
type = Stem;
},
{
horizontal = 1;
place = (291,94);
type = Stem;
},
{
horizontal = 1;
place = (86,96);
type = Stem;
},
{
horizontal = 1;
place = (0,21);
target = up;
type = BottomGhost;
},
{
place = (914,100);
type = Stem;
},
{
place = (649,105);
type = Stem;
},
{
place = (629,92);
type = Stem;
},
{
place = (88,139);
type = Stem;
},
{
place = (66,133);
type = Stem;
}
);
layerId = m01;
shapes = (
{
closed = 1;
nodes = (
(1014,0,l),
(1014,920,l),
(1126,920,l),
(1126,1026,l),
(0,1026,l),
(0,920,l),
(629,920,l),
(629,858,l),
(426,858,o),
(290,850,o),
(221,834,cs),
(184,825,o),
(150,806,o),
(119,775,cs),
(89,744,o),
(71,711,o),
(66,674,c),
(70,613,o),
(94,567,o),
(137,537,c),
(150,511,o),
(230,498,o),
(379,498,cs),
(461,498,ls),
(504,498,o),
(543,489,o),
(578,471,cs),
(621,449,o),
(645,419,o),
(649,381,c),
(616,293,l),
(583,312,o),
(546,333,o),
(504,354,c),
(451,373,o),
(408,384,o),
(377,387,cs),
(361,388,o),
(345,388,o),
(330,387,cs),
(315,386,o),
(304,385,o),
(299,385,cs),
(241,385,o),
(193,375,o),
(154,356,cs),
(139,348,o),
(123,331,o),
(108,305,cs),
(93,279,o),
(87,257,o),
(88,240,cs),
(97,137,o),
(206,86,o),
(414,86,cs),
(470,86,o),
(544,111,o),
(637,160,c),
(913,0,l)
);
},
{
closed = 1;
nodes = (
(717,229,l),
(743,266,o),
(755,315,o),
(754,375,cs),
(753,442,o),
(724,495,o),
(668,535,cs),
(619,570,o),
(560,590,o),
(489,594,c),
(444,590,o),
(385,591,o),
(313,598,cs),
(231,606,o),
(193,633,o),
(199,680,cs),
(203,715,o),
(246,737,o),
(328,748,cs),
(388,756,o),
(519,760,o),
(721,760,c),
(721,920,l),
(915,920,l),
(913,115,l)
);
},
{
closed = 1;
nodes = (
(350,294,o),
(394,285,o),
(451,264,c),
(456,261,o),
(489,246,o),
(549,217,c),
(494,194,o),
(434,182,o),
(370,182,cs),
(283,182,o),
(235,202,o),
(227,242,cs),
(222,269,o),
(252,285,o),
(319,291,cs)
);
}
);
width = 1126;
}
);
note = da_gurungkhema;
unicode = 90386;
},
{
glyphname = dha_gurungkhema;
layers = (
{
hints = (
{
horizontal = 1;
place = (920,106);
type = Stem;
},
{
horizontal = 1;
place = (760,98);
type = Stem;
},
{
horizontal = 1;
place = (498,94);
type = Stem;
},
{
horizontal = 1;
place = (291,94);
type = Stem;
},
{
horizontal = 1;
place = (86,96);
type = Stem;
},
{
horizontal = 1;
place = (0,21);
target = up;
type = BottomGhost;
},
{
place = (1161,96);
type = Stem;
},
{
place = (914,100);
type = Stem;
},
{
place = (649,105);
type = Stem;
},
{
place = (629,92);
type = Stem;
},
{
place = (88,139);
type = Stem;
},
{
place = (66,133);
type = Stem;
}
);
layerId = m01;
shapes = (
{
closed = 1;
nodes = (
(913,115,l),
(717,229,l),
(743,266,o),
(755,315,o),
(754,375,cs),
(753,442,o),
(724,495,o),
(668,535,cs),
(619,570,o),
(560,590,o),
(489,594,c),
(424,592,ls),
(387,591,o),
(350,593,o),
(313,598,cs),
(232,609,o),
(194,637,o),
(199,680,cs),
(203,715,o),
(246,737,o),
(328,748,cs),
(388,756,o),
(519,760,o),
(721,760,c),
(721,920,l),
(915,920,l)
);
},
{
closed = 1;
nodes = (
(283,182,o),
(235,202,o),
(227,242,cs),
(222,267,o),
(252,284,o),
(319,291,cs),
(358,295,o),
(402,286,o),
(451,264,cs),
(489,247,o),
(522,232,o),
(549,217,c),
(494,194,o),
(434,182,o),
(370,182,cs)
);
},
{
closed = 1;
nodes = (
(1257,920,l),
(1372,920,l),
(1372,1026,l),
(0,1026,l),
(0,920,l),
(629,920,l),
(629,858,l),
(426,858,o),
(290,850,o),
(221,834,cs),
(184,825,o),
(150,806,o),
(119,775,cs),
(89,744,o),
(71,711,o),
(66,674,c),
(70,611,o),
(94,566,o),
(137,537,c),
(150,511,o),
(230,498,o),
(379,498,cs),
(461,498,l),
(520,488,o),
(559,478,o),
(580,469,cs),
(622,450,o),
(645,421,o),
(649,381,c),
(647,377,o),
(636,348,o),
(616,293,c),
(557,323,o),
(520,343,o),
(504,354,c),
(451,373,o),
(408,384,o),
(377,387,cs),
(361,388,o),
(345,388,o),
(330,387,cs),
(315,386,o),
(304,385,o),
(299,385,cs),
(241,385,o),
(193,375,o),
(154,356,cs),
(138,348,o),
(122,331,o),
(107,305,cs),
(92,279,o),
(86,257,o),
(88,240,cs),
(99,137,o),
(207,86,o),
(414,86,cs),
(470,86,o),
(544,111,o),
(637,160,c),
(913,0,l),
(1014,0,l),
(1014,920,l),
(1161,920,l),
(1161,0,l),
(1257,0,l)
);
}
);
width = 1372;
}
);
note = dha_gurungkhema;
unicode = 90387;
},
{
glyphname = na_gurungkhema;
layers = (
{
hints = (
{
horizontal = 1;
place = (920,106);
type = Stem;
},
{
horizontal = 1;
place = (-2,131);
type = Stem;
},
{
place = (457,121);
type = Stem;
}
);
layerId = m01;
shapes = (
{
closed = 1;
nodes = (
(1024,920,l),
(1024,1026,l),
(0,1026,l),
(0,920,l),
(457,920,l),
(457,129,l),
(415,129,o),
(365,143,o),
(307,170,cs),
(246,198,o),
(205,229,o),
(184,262,c),
(33,262,l),
(136,86,o),
(300,-2,o),
(524,-2,cs),
(629,-2,o),
(721,18,o),
(802,57,cs),
(895,102,o),
(959,169,o),
(995,258,c),
(848,258,l),
(805,179,o),
(715,135,o),
(578,127,c),
(578,920,l)
);
}
);
width = 1024;
}
);
note = na_gurungkhema;
unicode = 90388;
},
{
glyphname = pa_gurungkhema;
layers = (
{
hints = (
{
horizontal = 1;
place = (922,102);
type = Stem;
},
{
horizontal = 1;
place = (612,121);
type = Stem;
},
{
horizontal = 1;
place = (-2,119);
type = Stem;
},
{
place = (784,111);
type = Stem;
},
{
place = (141,121);
type = Stem;
}
);
layerId = m01;
shapes = (
{
closed = 1;
nodes = (
(0,1024,l),
(0,922,l),
(141,922,l),
(141,369,ls),
(141,232,o),
(207,120,o),
(338,35,cs),
(375,11,o),
(436,-1,o),
(520,-2,cs),
(627,-3,o),
(716,30,o),
(787,95,cs),
(858,161,o),
(894,247,o),
(895,354,cs),
(896,466,o),
(865,557,o),
(802,626,cs),
(737,697,o),
(648,733,o),
(537,733,cs),
(424,733,o),
(332,694,o),
(262,616,c),
(262,922,l),
(922,922,l),
(922,1024,l)
);
},
{
closed = 1;
nodes = (
(361,136,o),
(276,211,o),
(262,342,c),
(262,453,l),
(318,547,o),
(405,600,o),
(524,612,c),
(597,612,o),
(658,590,o),
(708,547,cs),
(760,501,o),
(786,442,o),
(786,370,cs),
(786,368,o),
(785,359,o),
(784,344,cs),
(771,202,o),
(682,126,o),
(516,117,c)
);
}
);
width = 922;
}
);
note = pa_gurungkhema;
unicode = 90389;
},
{
glyphname = pha_gurungkhema;
layers = (
{
hints = (
{
horizontal = 1;
place = (920,104);
type = Stem;
},
{
horizontal = 1;
place = (612,121);
type = Stem;
},
{
horizontal = 1;
place = (-4,121);
type = Stem;
},
{
horizontal = 1;
place = (0,21);
target = up;
type = BottomGhost;
},
{
place = (1012,107);
type = Stem;
},
{
place = (786,111);
type = Stem;
},
{
place = (143,115);
type = Stem;
}
);
layerId = m01;
shapes = (
{
closed = 1;
nodes = (
(0,1024,l),
(0,920,l),
(143,920,l),
(143,369,ls),
(143,220,o),
(209,109,o),
(340,35,cs),
(385,10,o),
(446,-3,o),
(522,-4,cs),
(629,-5,o),
(717,28,o),
(788,95,cs),
(859,162,o),
(896,248,o),
(897,354,cs),
(898,466,o),
(867,557,o),
(804,626,cs),
(739,697,o),
(650,733,o),
(539,733,cs),
(423,733,o),
(329,695,o),
(258,618,c),
(258,920,l),
(1012,920,l),
(1012,0,l),
(1118,0,l),
(1120,920,l),
(1225,920,l),
(1225,1024,l)
);
},
{
closed = 1;
nodes = (
(360,136,o),
(274,211,o),
(260,342,c),
(260,453,l),
(316,547,o),
(405,600,o),
(526,612,c),
(599,612,o),
(660,590,o),
(710,547,cs),
(762,501,o),
(788,442,o),
(788,370,cs),
(788,368,o),
(787,359,o),
(786,344,cs),
(773,202,o),
(684,126,o),
(518,117,c)
);
}
);
width = 1225;
}
);
note = pha_gurungkhema;
unicode = 90390;
},
{
glyphname = ba_gurungkhema;
layers = (
{
hints = (
{
horizontal = 1;
place = (921,105);
type = Stem;
},
{
horizontal = 1;
place = (582,108);
type = Stem;
},
{
horizontal = 1;
place = (0,21);
target = up;
type = BottomGhost;
},
{
place = (868,115);
type = Stem;
},
{
place = (535,118);
type = Stem;
},
{
place = (39,131);
type = Stem;
}
);
layerId = m01;
shapes = (
{
closed = 1;
nodes = (
(983,922,l),
(1106,922,l),
(1106,1026,l),
(0,1026,l),
(0,920,l),
(231,920,l),
(150,887,o),
(89,831,o),
(47,752,cs),
(42,742,o),
(39,717,o),
(39,678,cs),
(39,559,o),
(88,479,o),
(186,438,cs),
(209,429,o),
(303,403,o),
(467,362,cs),
(581,333,o),
(665,290,o),
(719,233,c),
(792,135,o),
(846,57,o),
(881,0,c),
(983,0,l)
);
},
{
closed = 1;
nodes = (
(656,835,o),
(613,887,o),
(524,920,c),
(868,922,l),
(868,197,l),
(799,294,o),
(752,354,o),
(729,377,cs),
(700,406,o),
(661,429,o),
(612,444,cs),
(533,469,o),
(488,482,o),
(479,483,cs),
(399,491,o),
(345,500,o),
(317,510,cs),
(227,541,o),
(178,590,o),
(170,657,c),
(221,607,o),
(299,582,o),
(406,582,cs),
(565,582,o),
(648,643,o),
(653,764,cs)
);
},
{
closed = 1;
nodes = (
(319,693,o),
(255,721,o),
(197,772,c),
(258,823,o),
(322,848,o),
(389,848,cs),
(438,848,o),
(478,834,o),
(508,807,cs),
(526,791,o),
(535,777,o),
(535,766,cs),
(535,737,o),
(516,715,o),
(479,702,cs),
(452,692,o),
(422,688,o),
(389,690,cs)
);
}
);
width = 1106;
}
);
note = ba_gurungkhema;
unicode = 90391;
},
{
glyphname = bha_gurungkhema;
layers = (
{
hints = (
{
horizontal = 1;
place = (922,104);
type = Stem;
},
{
horizontal = 1;
place = (582,108);
type = Stem;
},
{
horizontal = 1;
place = (0,21);
target = up;
type = BottomGhost;
},
{
place = (1116,109);
type = Stem;
},
{
place = (868,115);
type = Stem;
},
{
place = (535,118);
type = Stem;
},
{
place = (39,131);
type = Stem;
}
);
layerId = m01;
shapes = (
{
closed = 1;
nodes = (
(1225,922,l),
(1331,922,l),
(1331,1026,l),
(0,1026,l),
(0,922,l),
(231,922,l),
(152,889,o),
(91,833,o),
(47,752,cs),
(42,742,o),
(39,717,o),
(39,678,cs),
(39,559,o),
(88,479,o),
(186,438,cs),
(209,429,o),
(303,403,o),
(467,362,cs),
(581,333,o),
(665,290,o),
(719,233,c),
(792,135,o),
(846,57,o),
(881,0,c),
(983,0,l),
(983,922,l),
(1116,922,l),
(1116,0,l),
(1225,0,l)
);
},
{
closed = 1;
nodes = (
(656,837,o),
(613,889,o),
(524,922,c),
(868,924,l),
(868,197,l),
(799,294,o),
(752,354,o),
(729,377,cs),
(700,406,o),
(661,429,o),
(612,444,cs),
(533,469,o),
(488,482,o),
(479,483,cs),
(399,491,o),
(345,500,o),
(317,510,cs),
(227,541,o),
(178,590,o),
(170,657,c),
(221,607,o),
(299,582,o),
(406,582,cs),
(567,582,o),
(649,643,o),
(653,764,cs)
);
},
{
closed = 1;
nodes = (
(319,693,o),
(255,721,o),
(197,772,c),
(258,823,o),
(322,848,o),
(389,848,cs),
(438,848,o),
(478,834,o),
(508,807,cs),
(526,791,o),
(535,777,o),
(535,766,cs),
(535,737,o),
(516,715,o),
(479,702,cs),
(452,692,o),
(422,688,o),
(389,690,cs)
);
}
);
width = 1331;
}
);
note = bha_gurungkhema;
unicode = 90392;
},
{
glyphname = ma_gurungkhema;
layers = (
{
hints = (
{
horizontal = 1;
place = (922,104);
type = Stem;
},
{
horizontal = 1;
place = (0,21);
target = up;
type = BottomGhost;
},
{
place = (0,1128);
type = Stem;
}
);
layerId = m01;
shapes = (
{
closed = 1;
nodes = (
(2,1026,l),
(0,922,l),
(147,922,l),
(510,444,l),
(219,0,l),
(371,-2,l),
(983,922,l),
(1126,922,l),
(1128,1026,l)
);
},
{
closed = 1;
nodes = (
(295,922,l),
(844,922,l),
(586,551,l)
);
}
);
width = 1126;
}
);
note = ma_gurungkhema;
unicode = 90393;
},
{
glyphname = ya_gurungkhema;
layers = (
{
hints = (
{
horizontal = 1;
place = (920,106);
type = Stem;
},
{
horizontal = 1;
place = (694,123);
type = Stem;
},
{
horizontal = 1;
place = (426,131);
type = Stem;
},
{
horizontal = 1;
place = (0,21);
target = up;
type = BottomGhost;
},
{
place = (874,113);
type = Stem;
},
{
place = (866,123);
type = Stem;
},
{
place = (209,121);
type = Stem;
}
);
layerId = m01;
shapes = (
{
closed = 1;
nodes = (
(0,1026,l),
(0,922,l),
(209,922,l),
(209,422,l),
(238,425,o),
(264,426,o),
(289,426,cs),
(393,426,o),
(505,386,o),
(625,307,cs),
(726,240,o),
(804,138,o),
(860,0,c),
(987,0,l),
(987,567,l),
(874,567,l),
(874,180,l),
(820,289,o),
(746,377,o),
(653,443,cs),
(556,512,o),
(448,550,o),
(330,557,c),
(330,920,l),
(1124,920,l),
(1124,1026,l)
);
},
{
closed = 1;
nodes = (
(887,817,o),
(866,797,o),
(866,756,cs),
(866,715,o),
(887,694,o),
(928,694,cs),
(969,694,o),
(989,715,o),
(989,756,cs),
(989,797,o),
(969,817,o),
(928,817,cs)
);
}
);
width = 1124;
}
);
note = ya_gurungkhema;
unicode = 90394;
},
{
glyphname = ra_gurungkhema;
layers = (
{
hints = (
{
horizontal = 1;
place = (922,104);
type = Stem;
},
{
horizontal = 1;
place = (460,130);
type = Stem;
},
{
place = (465,113);
type = Stem;
}
);
layerId = m01;
shapes = (
{
closed = 1;
nodes = (
(244,462,o),
(260,430,o),
(291,391,c),
(358,437,o),
(422,460,o),
(481,460,cs),
(490,460,o),
(497,460,o),
(504,459,cs),
(561,453,o),
(753,299,o),
(1079,-4,c),
(1137,66,l),
(849,348,o),
(663,512,o),
(578,559,c),
(578,922,l),
(1028,922,l),
(1028,1026,l),
(0,1026,l),
(0,920,l),
(465,920,l),
(465,590,l),
(387,590,o),
(326,576,o),
(283,549,cs),
(257,532,o),
(244,512,o),
(244,489,cs)
);
}
);
width = 1026;
}
);
note = ra_gurungkhema;
unicode = 90395;
},
{
glyphname = la_gurungkhema;
layers = (
{
hints = (
{
horizontal = 1;
place = (920,106);
type = Stem;
},
{
horizontal = 1;
place = (655,115);
type = Stem;
},
{
horizontal = 1;
place = (57,125);
type = Stem;
},
{
horizontal = 1;
place = (49,133);
type = Stem;
},
{
horizontal = 1;
place = (0,21);
target = up;
type = BottomGhost;
},
{
place = (1104,106);
type = Stem;
},
{
place = (821,109);
type = Stem;
},
{
place = (522,135);
type = Stem;
},
{
place = (125,129);
type = Stem;
}
);
layerId = m01;
shapes = (
{
closed = 1;
nodes = (
(2,1026,l),
(2,920,l),
(127,920,l),
(126,830,o),
(125,748,o),
(125,674,cs),
(124,393,o),
(154,216,o),
(215,145,cs),
(257,96,o),
(312,66,o),
(381,57,cs),
(392,56,o),
(416,59,o),
(455,66,cs),
(502,75,o),
(553,113,o),
(608,180,c),
(671,97,o),
(760,53,o),
(877,49,cs),
(939,47,o),
(1000,66,o),
(1059,106,c),
(1196,0,l),
(1341,0,l),
(1135,176,l),
(1185,279,o),
(1210,382,o),
(1210,485,cs),
(1210,554,o),
(1195,617,o),
(1165,672,cs),
(1130,737,o),
(1080,770,o),
(1016,770,cs),
(991,770,o),
(967,765,o),
(942,756,cs),
(863,725,o),
(822,648,o),
(821,524,cs),
(820,389,o),
(861,277,o),
(946,188,c),
(919,184,o),
(894,182,o),
(872,182,cs),
(811,182,o),
(755,212,o),
(702,272,cs),
(672,307,o),
(657,337,o),
(657,362,cs),
(657,618,l),
(522,618,l),
(522,342,l),
(511,269,o),
(495,222,o),
(473,203,cs),
(459,191,o),
(430,184,o),
(385,182,cs),
(298,179,o),
(254,273,o),
(254,465,cs),
(254,920,l),
(1225,920,l),
(1225,1026,l)
);
},
{
closed = 1;
nodes = (
(965,341,o),
(930,421,o),
(930,492,cs),
(930,529,o),
(936,562,o),
(948,592,cs),
(965,634,o),
(988,655,o),
(1018,655,cs),
(1073,655,o),
(1101,598,o),
(1104,483,cs),
(1105,419,o),
(1082,342,o),
(1034,252,c)
);
}
);
width = 1225;
}
);
note = la_gurungkhema;
unicode = 90396;
},
{
glyphname = sa_gurungkhema;
layers = (
{
hints = (
{
horizontal = 1;
place = (922,102);
type = Stem;
},
{
horizontal = 1;
place = (469,100);
type = Stem;
},
{
horizontal = 1;
place = (467,115);
type = Stem;
},
{
horizontal = 1;
place = (236,102);
type = Stem;
},
{
horizontal = 1;
place = (-6,108);
type = Stem;
},
{
place = (819,129);
type = Stem;
},
{
place = (680,115);
type = Stem;
},
{
place = (262,123);
type = Stem;
}
);
layerId = m01;
shapes = (
{
closed = 1;
nodes = (
(675,179,o),
(701,164,o),
(744,137,c),
(735,124,o),
(691,112,o),
(612,102,cs),
(579,98,o),
(536,102,o),
(483,115,cs),
(421,130,o),
(388,151,o),
(385,180,cs),
(382,204,o),
(398,220,o),
(432,229,cs),
(455,235,o),
(481,237,o),
(508,236,cs),
(529,235,o),
(556,228,o),
(589,216,cs),
(606,210,o),
(633,199,o),
(668,182,cs)
);
},
{
closed = 1;
nodes = (
(1075,1024,l),
(166,1024,l),
(166,922,l),
(420,922,l),
(343,904,o),
(297,872,o),
(281,825,c),
(365,758,l),
(395,793,o),
(449,816,o),
(526,825,cs),
(562,830,o),
(595,825,o),
(625,811,cs),
(661,795,o),
(679,770,o),
(680,735,cs),
(681,700,o),
(667,672,o),
(639,651,cs),
(628,643,o),
(599,628,o),
(551,606,c),
(496,593,o),
(452,585,o),
(418,582,c),
(416,467,l),
(428,467,o),
(449,469,o),
(480,473,cs),
(507,477,o),
(528,478,o),
(543,477,cs),
(582,474,o),
(629,471,o),
(684,469,c),
(774,425,o),
(819,362,o),
(819,279,cs),
(819,242,o),
(817,217,o),
(813,205,c),
(744,254,o),
(697,284,o),
(672,295,cs),
(605,324,o),
(533,338,o),
(455,338,cs),
(417,338,o),
(379,327,o),
(340,305,cs),
(316,291,o),
(299,278,o),
(289,266,cs),
(275,249,o),
(266,221,o),
(262,182,c),
(280,121,o),
(320,74,o),
(381,43,cs),
(422,22,o),
(481,6,o),
(559,-6,c),
(686,-5,o),
(777,16,o),
(830,55,c),
(1090,-102,l),
(1268,111,l),
(1186,172,l),
(1071,31,l),
(903,133,l),
(933,176,o),
(948,238,o),
(948,317,cs),
(948,371,o),
(927,425,o),
(885,479,cs),
(864,505,o),
(834,527,o),
(795,545,cs),
(756,564,o),
(721,572,o),
(688,569,c),
(750,604,o),
(783,631,o),
(787,649,cs),
(797,692,o),
(800,737,o),
(795,784,cs),
(790,833,o),
(760,870,o),
(705,895,cs),
(696,899,o),
(669,908,o),
(625,922,c),
(1075,922,l)
);
}
);
width = 1328;
}
);
note = sa_gurungkhema;
unicode = 90397;
},
{
glyphname = vowelsignaacomb_gurungkhema;
layers = (
{
hints = (
{
horizontal = 1;
place = (1154,107);
type = Stem;
},
{
place = (-1027,858);
type = Stem;
}
);
layerId = m01;
shapes = (
{
closed = 1;
nodes = (
(-1027,1154,l),
(-169,1154,l),
(-169,1261,l),
(-1027,1261,l)
);
}
);
width = 0;
}
);
note = vowelsignaacomb_gurungkhema;
unicode = 90398;
},
{
glyphname = vowelsignicomb_gurungkhema;
layers = (
{
hints = (
{
horizontal = 1;
place = (1374,92);
type = Stem;
},
{
horizontal = 1;
place = (1155,90);
type = Stem;
},
{
place = (-607,92);
type = Stem;
},
{
place = (-821,88);
type = Stem;
}
);
layerId = m01;
shapes = (
{
closed = 1;
nodes = (
(-821,1269,o),
(-806,1232,o),
(-777,1201,cs),
(-748,1170,o),
(-712,1155,o),
(-669,1155,cs),
(-626,1155,o),
(-589,1170,o),
(-559,1201,cs),
(-530,1232,o),
(-515,1269,o),
(-515,1312,cs),
(-515,1356,o),
(-530,1393,o),
(-559,1422,cs),
(-588,1451,o),
(-625,1466,o),
(-669,1466,cs),
(-712,1466,o),
(-748,1451,o),
(-777,1421,cs),
(-806,1392,o),
(-821,1355,o),
(-821,1312,cs)
);
},
{
closed = 1;
nodes = (
(-733,1352,o),
(-713,1374,o),
(-672,1374,cs),
(-629,1374,o),
(-607,1352,o),
(-607,1309,cs),
(-607,1266,o),
(-629,1245,o),
(-672,1245,cs),
(-713,1245,o),
(-733,1266,o),
(-733,1309,cs)
);
}
);
width = 0;
}
);
note = vowelsignicomb_gurungkhema;
unicode = 90399;
},
{
glyphname = vowelsigniicomb_gurungkhema;
layers = (
{
hints = (
{
horizontal = 1;
place = (1377,91);
type = Stem;
},
{
horizontal = 1;
place = (1158,88);
type = Stem;
},
{
place = (-214,91);
type = Stem;
},
{
place = (-430,90);
type = Stem;
},
{
place = (-775,92);
type = Stem;
},
{
place = (-990,88);
type = Stem;
}
);
layerId = m01;
shapes = (
{
closed = 1;
nodes = (
(-430,1270,o),
(-415,1233,o),
(-386,1203,cs),
(-357,1173,o),
(-320,1158,o),
(-276,1158,cs),
(-232,1158,o),
(-195,1173,o),
(-166,1203,cs),
(-137,1234,o),
(-123,1271,o),
(-123,1315,cs),
(-123,1358,o),
(-137,1395,o),
(-166,1424,cs),
(-195,1453,o),
(-232,1468,o),
(-276,1468,cs),
(-320,1468,o),
(-357,1453,o),
(-386,1424,cs),
(-415,1395,o),
(-430,1359,o),
(-430,1315,cs)
);
},
{
closed = 1;
nodes = (
(-340,1355,o),
(-319,1377,o),
(-278,1377,cs),
(-235,1377,o),
(-214,1355,o),
(-214,1312,cs),
(-214,1268,o),
(-235,1246,o),
(-278,1246,cs),
(-319,1246,o),
(-340,1268,o),
(-340,1312,cs)
);
},
{
closed = 1;
nodes = (
(-990,1271,o),
(-975,1234,o),
(-946,1203,cs),
(-917,1173,o),
(-881,1158,o),
(-837,1158,cs),
(-793,1158,o),
(-756,1173,o),
(-727,1203,cs),
(-698,1233,o),
(-683,1270,o),
(-683,1315,cs),
(-683,1359,o),
(-698,1395,o),
(-727,1424,cs),
(-756,1453,o),
(-793,1468,o),
(-837,1468,cs),
(-880,1468,o),
(-917,1453,o),
(-946,1424,cs),
(-975,1395,o),
(-990,1358,o),
(-990,1315,cs)
);
},
{
closed = 1;
nodes = (
(-902,1355,o),
(-881,1377,o),
(-840,1377,cs),
(-797,1377,o),
(-775,1355,o),
(-775,1312,cs),
(-775,1268,o),
(-797,1246,o),
(-840,1246,cs),
(-881,1246,o),
(-902,1268,o),
(-902,1312,cs)
);
}
);
width = 0;
}
);
note = vowelsigniicomb_gurungkhema;
unicode = 90400;
},
{
glyphname = vowelsignucomb_gurungkhema;
layers = (
{
hints = (
{
horizontal = 1;
place = (1376,106);
type = Stem;
},
{
horizontal = 1;
place = (1154,107);
type = Stem;
},
{
place = (-1027,858);
type = Stem;
}
);
layerId = m01;
shapes = (
{
closed = 1;
nodes = (
(-1027,1376,l),
(-169,1376,l),
(-169,1482,l),
(-1027,1482,l)
);
},
{
closed = 1;
nodes = (
(-1027,1154,l),
(-169,1154,l),
(-169,1261,l),
(-1027,1261,l)
);
}
);
width = 0;
}
);
note = vowelsignucomb_gurungkhema;
unicode = 90401;
},
{
glyphname = vowelsignuucomb_gurungkhema;
layers = (
{
hints = (
{
horizontal = 1;
place = (1321,116);
type = Stem;
},
{
horizontal = 1;
place = (1125,105);
type = Stem;
},
{
place = (-285,116);
type = Stem;
}
);
layerId = m01;
shapes = (
{
closed = 1;
nodes = (
(-285,1723,l),
(-285,1437,l),
(-1027,1437,l),
(-1027,1321,l),
(-169,1321,l),
(-169,1723,l)
);
},
{
closed = 1;
nodes = (
(-1027,1125,l),
(-169,1125,l),
(-169,1230,l),
(-1027,1230,l)
);
}
);
width = 0;
}
);
note = vowelsignuucomb_gurungkhema;
unicode = 90402;
},
{
glyphname = vowelsignecomb_gurungkhema;
layers = (
{
hints = (
{
horizontal = 1;
place = (1542,91);
type = Stem;
},
{
horizontal = 1;
place = (1323,88);
type = Stem;
},
{
horizontal = 1;
place = (1105,107);
type = Stem;
},
{
place = (-557,91);
type = Stem;
},
{
place = (-773,89);
type = Stem;
}
);
layerId = m01;
shapes = (
{
closed = 1;
nodes = (
(-773,1436,o),
(-758,1399,o),
(-729,1368,cs),
(-700,1338,o),
(-663,1323,o),
(-619,1323,cs),
(-575,1323,o),
(-538,1338,o),
(-509,1368,cs),
(-480,1399,o),
(-466,1436,o),
(-466,1480,cs),
(-466,1523,o),
(-481,1560,o),
(-510,1589,cs),
(-539,1618,o),
(-576,1633,o),
(-619,1633,cs),
(-663,1633,o),
(-700,1618,o),
(-729,1589,cs),
(-758,1560,o),
(-773,1524,o),
(-773,1480,cs)
);
},
{
closed = 1;
nodes = (
(-684,1520,o),
(-663,1542,o),
(-622,1542,cs),
(-579,1542,o),
(-557,1520,o),
(-557,1476,cs),
(-557,1433,o),
(-579,1411,o),
(-622,1411,cs),
(-663,1411,o),
(-684,1433,o),
(-684,1476,cs)
);
},
{
closed = 1;
nodes = (
(-1027,1105,l),
(-169,1105,l),
(-169,1212,l),
(-1027,1212,l)
);
}
);
width = 0;
}
);
note = vowelsignecomb_gurungkhema;
unicode = 90403;
},
{
glyphname = vowelsigneecomb_gurungkhema;
layers = (
{
hints = (
{
horizontal = 1;
place = (1536,91);
type = Stem;
},
{
horizontal = 1;
place = (1317,88);
type = Stem;
},
{
horizontal = 1;
place = (1125,116);
type = Stem;
},
{
place = (-285,116);
type = Stem;
},
{
place = (-557,92);
type = Stem;
},
{
place = (-771,88);
type = Stem;
}
);
layerId = m01;
shapes = (
{
closed = 1;
nodes = (
(-771,1430,o),
(-756,1393,o),
(-727,1362,cs),
(-698,1332,o),
(-662,1317,o),
(-619,1317,cs),
(-575,1317,o),
(-538,1332,o),
(-509,1362,cs),
(-480,1393,o),
(-465,1430,o),
(-465,1474,cs),
(-465,1517,o),
(-480,1554,o),
(-509,1583,cs),
(-538,1612,o),
(-575,1627,o),
(-619,1627,cs),
(-662,1627,o),
(-698,1612,o),
(-727,1583,cs),
(-756,1554,o),
(-771,1517,o),
(-771,1474,cs)
);
},
{
closed = 1;
nodes = (
(-683,1514,o),
(-663,1536,o),
(-622,1536,cs),
(-579,1536,o),
(-557,1514,o),
(-557,1471,cs),
(-557,1427,o),
(-579,1405,o),
(-622,1405,cs),
(-663,1405,o),
(-683,1427,o),
(-683,1471,cs)
);
},
{
closed = 1;
nodes = (
(-285,1527,l),
(-285,1241,l),
(-1027,1241,l),
(-1027,1125,l),
(-169,1125,l),
(-169,1527,l)
);
}
);
width = 0;
}
);
note = vowelsigneecomb_gurungkhema;
unicode = 90404;
},
{
glyphname = vowelsignaicomb_gurungkhema;
layers = (
{
hints = (
{
horizontal = 1;
place = (1552,91);
type = Stem;
},
{
horizontal = 1;
place = (1333,88);
type = Stem;
},
{
horizontal = 1;
place = (1114,107);
type = Stem;
},
{
place = (-272,91);
type = Stem;
},
{
place = (-488,90);
type = Stem;
},
{
place = (-833,92);
type = Stem;
},
{
place = (-1048,88);
type = Stem;
}
);
layerId = m01;
shapes = (
{
closed = 1;
nodes = (
(-488,1446,o),
(-473,1409,o),
(-444,1378,cs),
(-415,1348,o),
(-378,1333,o),
(-334,1333,cs),
(-290,1333,o),
(-253,1348,o),
(-224,1378,cs),
(-195,1409,o),
(-181,1446,o),
(-181,1490,cs),
(-181,1533,o),
(-195,1570,o),
(-224,1599,cs),
(-253,1628,o),
(-290,1643,o),
(-334,1643,cs),
(-378,1643,o),
(-415,1628,o),
(-444,1599,cs),
(-473,1570,o),
(-488,1534,o),
(-488,1490,cs)
);
},
{
closed = 1;
nodes = (
(-398,1530,o),
(-377,1552,o),
(-336,1552,cs),
(-293,1552,o),
(-272,1530,o),
(-272,1486,cs),
(-272,1443,o),
(-293,1421,o),
(-336,1421,cs),
(-377,1421,o),
(-398,1443,o),
(-398,1486,cs)
);
},
{
closed = 1;
nodes = (
(-1048,1446,o),
(-1033,1409,o),
(-1004,1378,cs),
(-975,1348,o),
(-939,1333,o),
(-895,1333,cs),
(-851,1333,o),
(-814,1348,o),
(-785,1378,cs),
(-756,1408,o),
(-741,1445,o),
(-741,1490,cs),
(-741,1534,o),
(-756,1570,o),
(-785,1599,cs),
(-814,1628,o),
(-851,1643,o),
(-895,1643,cs),
(-938,1643,o),
(-975,1628,o),
(-1004,1599,cs),
(-1033,1570,o),
(-1048,1533,o),
(-1048,1490,cs)
);
},
{
closed = 1;
nodes = (
(-960,1530,o),
(-939,1552,o),
(-898,1552,cs),
(-855,1552,o),
(-833,1530,o),
(-833,1486,cs),
(-833,1443,o),
(-855,1421,o),
(-898,1421,cs),
(-939,1421,o),
(-960,1443,o),
(-960,1486,cs)
);
},
{
closed = 1;
nodes = (
(-1027,1114,l),
(-169,1114,l),
(-169,1221,l),
(-1027,1221,l)
);
}
);
width = 0;
}
);
note = vowelsignaicomb_gurungkhema;
unicode = 90405;
},
{
glyphname = vowelsignocomb_gurungkhema;
layers = (
{
hints = (
{
horizontal = 1;
place = (1732,91);
type = Stem;
},
{
horizontal = 1;
place = (1513,88);
type = Stem;
},
{
horizontal = 1;
place = (1321,116);
type = Stem;
},
{
horizontal = 1;
place = (1125,105);
type = Stem;
},
{
place = (-557,92);
type = Stem;
},
{
place = (-771,88);
type = Stem;
}
);
layerId = m01;
shapes = (
{
closed = 1;
nodes = (
(-771,1626,o),
(-756,1589,o),
(-727,1558,cs),
(-698,1528,o),
(-662,1513,o),
(-619,1513,cs),
(-575,1513,o),
(-538,1528,o),
(-509,1558,cs),
(-480,1589,o),
(-465,1626,o),
(-465,1670,cs),
(-465,1713,o),
(-480,1750,o),
(-509,1779,cs),
(-538,1808,o),
(-575,1823,o),
(-619,1823,cs),
(-662,1823,o),
(-698,1808,o),
(-727,1779,cs),
(-756,1750,o),
(-771,1713,o),
(-771,1670,cs)
);
},
{
closed = 1;
nodes = (
(-683,1710,o),
(-663,1732,o),
(-622,1732,cs),
(-579,1732,o),
(-557,1710,o),
(-557,1667,cs),
(-557,1623,o),
(-579,1601,o),
(-622,1601,cs),
(-663,1601,o),
(-683,1623,o),
(-683,1667,cs)
);
},
{
closed = 1;
nodes = (
(-1027,1321,l),
(-169,1321,l),
(-169,1437,l),
(-1027,1437,l)
);
},
{
closed = 1;
nodes = (
(-1027,1125,l),
(-169,1125,l),
(-169,1230,l),
(-1027,1230,l)
);
}
);
width = 0;
}
);
note = vowelsignocomb_gurungkhema;
unicode = 90406;
},
{
glyphname = vowelsignoocomb_gurungkhema;
layers = (
{
hints = (
{
horizontal = 1;
place = (1732,91);
type = Stem;
},
{
horizontal = 1;
place = (1513,88);
type = Stem;
},
{
horizontal = 1;
place = (1321,116);
type = Stem;
},
{
horizontal = 1;
place = (1125,105);
type = Stem;
},
{
place = (-285,116);
type = Stem;
},
{
place = (-557,92);
type = Stem;
},
{
place = (-771,88);
type = Stem;
}
);
layerId = m01;
shapes = (
{
closed = 1;
nodes = (
(-771,1626,o),
(-756,1589,o),
(-727,1558,cs),
(-698,1528,o),
(-662,1513,o),
(-619,1513,cs),
(-575,1513,o),
(-538,1528,o),
(-509,1558,cs),
(-480,1589,o),
(-465,1626,o),
(-465,1670,cs),
(-465,1713,o),
(-480,1750,o),
(-509,1779,cs),
(-538,1808,o),
(-575,1823,o),
(-619,1823,cs),
(-662,1823,o),
(-698,1808,o),
(-727,1779,cs),
(-756,1750,o),
(-771,1713,o),
(-771,1670,cs)
);
},
{
closed = 1;
nodes = (
(-683,1710,o),
(-663,1732,o),
(-622,1732,cs),
(-579,1732,o),
(-557,1710,o),
(-557,1667,cs),
(-557,1623,o),
(-579,1601,o),
(-622,1601,cs),
(-663,1601,o),
(-683,1623,o),
(-683,1667,cs)
);
},
{
closed = 1;
nodes = (
(-285,1723,l),
(-285,1437,l),
(-1027,1437,l),
(-1027,1321,l),
(-169,1321,l),
(-169,1723,l)
);
},
{
closed = 1;
nodes = (
(-1027,1125,l),
(-169,1125,l),
(-169,1230,l),
(-1027,1230,l)
);
}
);
width = 0;
}
);
note = vowelsignoocomb_gurungkhema;
unicode = 90407;
},
{
glyphname = vowelsignaucomb_gurungkhema;
layers = (
{
hints = (
{
horizontal = 1;
place = (1721,91);
type = Stem;
},
{
horizontal = 1;
place = (1502,88);
type = Stem;
},
{
horizontal = 1;
place = (1331,106);
type = Stem;
},
{
horizontal = 1;
place = (1124,105);
type = Stem;
},
{
place = (-252,91);
type = Stem;
},
{
place = (-468,90);
type = Stem;
},
{
place = (-813,92);
type = Stem;
},
{
place = (-1028,88);
type = Stem;
}
);
layerId = m01;
shapes = (
{
closed = 1;
nodes = (
(-468,1614,o),
(-453,1577,o),
(-424,1547,cs),
(-395,1517,o),
(-358,1502,o),
(-314,1502,cs),
(-270,1502,o),
(-233,1517,o),
(-204,1547,cs),
(-175,1578,o),
(-161,1615,o),
(-161,1659,cs),
(-161,1702,o),
(-175,1739,o),
(-204,1768,cs),
(-233,1797,o),
(-270,1812,o),
(-314,1812,cs),
(-358,1812,o),
(-395,1797,o),
(-424,1768,cs),
(-453,1739,o),
(-468,1703,o),
(-468,1659,cs)
);
},
{
closed = 1;
nodes = (
(-378,1699,o),
(-357,1721,o),
(-316,1721,cs),
(-273,1721,o),
(-252,1699,o),
(-252,1656,cs),
(-252,1612,o),
(-273,1590,o),
(-316,1590,cs),
(-357,1590,o),
(-378,1612,o),
(-378,1656,cs)
);
},
{
closed = 1;
nodes = (
(-1028,1615,o),
(-1013,1578,o),
(-984,1547,cs),
(-955,1517,o),
(-919,1502,o),
(-875,1502,cs),
(-831,1502,o),
(-794,1517,o),
(-765,1547,cs),
(-736,1577,o),
(-721,1614,o),
(-721,1659,cs),
(-721,1703,o),
(-736,1739,o),
(-765,1768,cs),
(-794,1797,o),
(-831,1812,o),
(-875,1812,cs),
(-918,1812,o),
(-955,1797,o),
(-984,1768,cs),
(-1013,1739,o),
(-1028,1702,o),
(-1028,1659,cs)
);
},
{
closed = 1;
nodes = (
(-940,1699,o),
(-919,1721,o),
(-878,1721,cs),
(-835,1721,o),
(-813,1699,o),
(-813,1656,cs),
(-813,1612,o),
(-835,1590,o),
(-878,1590,cs),
(-919,1590,o),
(-940,1612,o),
(-940,1656,cs)
);
},
{
closed = 1;
nodes = (
(-1027,1331,l),
(-169,1331,l),
(-169,1437,l),
(-1027,1437,l)
);
},
{
closed = 1;
nodes = (
(-1027,1124,l),
(-169,1124,l),
(-169,1229,l),
(-1027,1229,l)
);
}
);
width = 0;
}
);
note = vowelsignaucomb_gurungkhema;
unicode = 90408;
},
{
glyphname = vowellengthmarkcomb_gurungkhema;
layers = (
{
hints = (
{
horizontal = 1;
place = (1321,116);
type = Stem;
},
{
place = (-285,116);
type = Stem;
}
);
layerId = m01;
shapes = (
{
closed = 1;
nodes = (
(-285,1723,l),
(-285,1437,l),
(-1027,1437,l),
(-1027,1321,l),
(-169,1321,l),
(-169,1723,l)
);
}
);
width = 0;
}
);
note = vowellengthmarkcomb_gurungkhema;
unicode = 90409;
},
{
glyphname = consonantsignmedialya_gurungkhema;
layers = (
{
hints = (
{
horizontal = 1;
place = (920,106);
type = Stem;
},
{
place = (129,113);
type = Stem;
}
);
layerId = m01;
shapes = (
{
closed = 1;
nodes = (
(4,1026,l),
(0,1020,l),
(0,920,l),
(129,920,l),
(129,18,l),
(562,-78,o),
(824,-147,o),
(917,-190,cs),
(984,-221,o),
(1046,-254,o),
(1102,-291,cs),
(1125,-306,o),
(1148,-314,o),
(1169,-313,cs),
(1204,-312,o),
(1241,-295,o),
(1278,-260,c),
(1189,-187,o),
(1085,-129,o),
(965,-84,cs),
(868,-48,o),
(727,-7,o),
(541,39,cs),
(242,113,l),
(242,920,l),
(375,920,l),
(375,1026,l)
);
}
);
width = 375;
}
);
note = consonantsignmedialya_gurungkhema;
unicode = 90410;
},
{
glyphname = consonantsignmedialva_gurungkhema;
layers = (
{
hints = (
{
horizontal = 1;
place = (921,105);
type = Stem;
},
{
horizontal = 1;
place = (-410,113);
type = Stem;
},
{
place = (1094,145);
type = Stem;
},
{
place = (127,113);
type = Stem;
}
);
layerId = m01;
shapes = (
{
closed = 1;
nodes = (
(2,1026,l),
(-2,1020,l),
(-2,920,l),
(127,922,l),
(127,61,l),
(575,-37,o),
(838,-106,o),
(915,-147,c),
(962,-166,o),
(1008,-186,o),
(1051,-207,cs),
(1080,-221,o),
(1094,-236,o),
(1094,-252,cs),
(1094,-282,o),
(1075,-297,o),
(1038,-297,cs),
(1015,-297,o),
(985,-289,o),
(948,-272,cs),
(927,-263,o),
(906,-258,o),
(887,-258,cs),
(844,-258,o),
(809,-281,o),
(782,-328,c),
(895,-379,o),
(984,-406,o),
(1047,-410,cs),
(1096,-413,o),
(1139,-402,o),
(1176,-379,cs),
(1218,-352,o),
(1239,-315,o),
(1239,-268,cs),
(1239,-207,o),
(1187,-147,o),
(1083,-88,c),
(963,-41,ls),
(880,-8,o),
(738,33,o),
(539,82,cs),
(240,156,l),
(240,920,l),
(373,922,l),
(373,1026,l)
);
}
);
width = 373;
}
);
note = consonantsignmedialva_gurungkhema;
unicode = 90411;
},
{
glyphname = consonantsignmedialha_gurungkhema;
layers = (
{
hints = (
{
horizontal = 1;
place = (923,103);
type = Stem;
},
{
horizontal = 1;
place = (723,118);
type = Stem;
},
{
horizontal = 1;
place = (435,122);
type = Stem;
},
{
horizontal = 1;
place = (212,118);
type = Stem;
},
{
horizontal = 1;
place = (-76,122);
type = Stem;
},
{
place = (337,127);
type = Stem;
},
{
place = (57,119);
type = Stem;
}
);
layerId = m01;
shapes = (
{
closed = 1;
nodes = (
(317,435,o),
(366,455,o),
(405,494,cs),
(444,533,o),
(464,582,o),
(464,640,cs),
(464,697,o),
(444,745,o),
(405,783,cs),
(366,822,o),
(317,841,o),
(259,841,cs),
(203,841,o),
(155,821,o),
(116,782,cs),
(77,743,o),
(57,696,o),
(57,640,cs),
(57,583,o),
(77,535,o),
(116,495,cs),
(155,455,o),
(203,435,o),
(259,435,cs)
);
},
{
closed = 1;
nodes = (
(210,557,o),
(176,593,o),
(176,640,cs),
(176,687,o),
(210,723,o),
(255,723,cs),
(299,723,o),
(337,683,o),
(337,640,cs),
(337,593,o),
(302,557,o),
(255,557,cs)
);
},
{
closed = 1;
nodes = (
(317,-76,o),
(366,-56,o),
(405,-17,cs),
(444,22,o),
(464,71,o),
(464,129,cs),
(464,186,o),
(444,234,o),
(405,272,cs),
(366,311,o),
(317,330,o),
(259,330,cs),
(203,330,o),
(155,310,o),
(116,271,cs),
(77,232,o),
(57,185,o),
(57,129,cs),
(57,72,o),
(77,24,o),
(116,-16,cs),
(155,-56,o),
(203,-76,o),
(259,-76,cs)
);
},
{
closed = 1;
nodes = (
(210,46,o),
(176,82,o),
(176,129,cs),
(176,176,o),
(210,212,o),
(255,212,cs),
(299,212,o),
(337,172,o),
(337,129,cs),
(337,82,o),
(302,46,o),
(255,46,cs)
);
},
{
closed = 1;
nodes = (
(0,1026,l),
(1,923,l),
(543,923,l),
(543,1026,l)
);
}
);
width = 543;
}
);
note = consonantsignmedialha_gurungkhema;
unicode = 90412;
},
{
glyphname = signanusvaracomb_gurungkhema;
layers = (
{
hints = (
{
horizontal = 1;
place = (1060,338);
type = Stem;
},
{
place = (-807,457);
type = Stem;
}
);
layerId = m01;
shapes = (
{
closed = 1;
nodes = (
(-350,1398,l),
(-462,1398,l),
(-571,1249,l),
(-683,1398,l),
(-807,1398,l),
(-577,1060,l)
);
}
);
width = 0;
}
);
note = signanusvaracomb_gurungkhema;
unicode = 90413;
},
{
glyphname = consonantsignmedialracomb_gurungkhema;
layers = (
{
hints = (
{
horizontal = 1;
place = (-405,385);
type = Stem;
},
{
place = (-786,498);
type = Stem;
}
);
layerId = m01;
shapes = (
{
closed = 1;
nodes = (
(-535,-20,l),
(-786,-405,l),
(-656,-405,l),
(-535,-203,l),
(-427,-405,l),
(-288,-405,l)
);
}
);
width = 0;
}
);
note = consonantsignmedialracomb_gurungkhema;
unicode = 90414;
},
{
glyphname = signtholhomacomb_gurungkhema;
layers = (
{
hints = (
{
horizontal = 1;
place = (-394,412);
type = Stem;
},
{
place = (-613,345);
type = Stem;
}
);
layerId = m01;
shapes = (
{
closed = 1;
nodes = (
(-500,18,l),
(-613,-73,l),
(-381,-394,l),
(-268,-307,l)
);
}
);
width = 0;
}
);
note = signtholhomacomb_gurungkhema;
unicode = 90415;
},
{
glyphname = zero_gurungkhema;
layers = (
{
hints = (
{
horizontal = 1;
place = (903,121);
type = Stem;
},
{
horizontal = 1;
place = (-2,119);
type = Stem;
},
{
place = (795,118);
type = Stem;
},
{
place = (90,115);
type = Stem;
}
);
layerId = m01;
shapes = (
{
closed = 1;
nodes = (
(103,688,o),
(90,606,o),
(90,508,cs),
(90,427,o),
(105,349,o),
(135,276,cs),
(168,195,o),
(218,129,o),
(283,79,cs),
(352,26,o),
(429,-1,o),
(514,-2,cs),
(563,-3,o),
(611,8,o),
(659,29,cs),
(770,78,o),
(846,172,o),
(885,309,cs),
(904,374,o),
(913,441,o),
(913,508,cs),
(913,529,o),
(908,570,o),
(899,629,cs),
(882,741,o),
(840,833,o),
(774,905,cs),
(701,984,o),
(611,1024,o),
(502,1024,cs),
(385,1024,o),
(286,975,o),
(205,877,cs),
(170,834,o),
(144,793,o),
(129,754,cs)
);
},
{
closed = 1;
nodes = (
(230,325,o),
(205,413,o),
(205,512,cs),
(205,613,o),
(226,697,o),
(268,764,cs),
(327,858,o),
(406,904,o),
(506,903,cs),
(601,902,o),
(676,857,o),
(729,770,cs),
(773,697,o),
(795,610,o),
(795,508,cs),
(795,403,o),
(774,315,o),
(733,244,cs),
(682,155,o),
(607,113,o),
(510,117,cs),
(415,121,o),
(338,165,o),
(281,250,cs)
);
}
);
width = 1026;
}
);
note = zero_gurungkhema;
unicode = 90416;
},
{
glyphname = one_gurungkhema;
layers = (
{
hints = (
{
horizontal = 1;
place = (1120,160);
type = Stem;
},
{
place = (295,129);
type = Stem;
},
{
place = (203,166);
type = Stem;
},
{
place = (113,123);
type = Stem;
}
);
layerId = m01;
shapes = (
{
closed = 1;
nodes = (
(207,1024,l),
(144,930,o),
(113,842,o),
(113,760,cs),
(113,711,o),
(124,658,o),
(147,602,c),
(180,545,o),
(206,502,o),
(227,473,cs),
(274,406,o),
(297,341,o),
(295,279,cs),
(293,209,o),
(261,115,o),
(199,-2,c),
(348,-2,l),
(369,46,o),
(384,81,o),
(395,102,c),
(416,176,o),
(425,231,o),
(424,268,cs),
(421,343,o),
(407,404,o),
(382,451,c),
(281,602,ls),
(251,649,o),
(236,696,o),
(236,743,cs),
(236,764,o),
(237,782,o),
(240,799,cs),
(251,866,o),
(290,941,o),
(358,1024,c)
);
},
{
closed = 1;
nodes = (
(230,1280,o),
(203,1253,o),
(203,1200,cs),
(203,1147,o),
(230,1120,o),
(285,1120,cs),
(341,1120,o),
(369,1147,o),
(369,1200,cs),
(369,1253,o),
(341,1280,o),
(285,1280,cs)
);
}
);
width = 512;
}
);
note = one_gurungkhema;
unicode = 90417;
},
{
glyphname = two_gurungkhema;
layers = (
{
hints = (
{
horizontal = 1;
place = (905,119);
type = Stem;
},
{
horizontal = 1;
place = (-2,125);
type = Stem;
},
{
place = (102,129);
type = Stem;
}
);
layerId = m01;
shapes = (
{
closed = 1;
nodes = (
(519,1021,o),
(485,1024,o),
(436,1024,cs),
(384,1024,o),
(326,1004,o),
(262,965,c),
(255,956,o),
(232,930,o),
(195,887,c),
(147,788,l),
(124,755,o),
(110,689,o),
(104,590,cs),
(103,567,o),
(102,551,o),
(102,541,c),
(101,536,o),
(101,519,o),
(102,489,cs),
(105,390,o),
(127,298,o),
(168,215,cs),
(198,154,o),
(246,96,o),
(313,43,c),
(379,9,l),
(397,2,o),
(424,-2,o),
(459,-2,cs),
(516,-2,o),
(572,20,o),
(626,63,cs),
(683,108,o),
(711,159,o),
(711,215,cs),
(711,248,o),
(686,272,o),
(635,287,c),
(587,176,o),
(532,121,o),
(469,123,cs),
(388,125,o),
(326,171,o),
(283,260,cs),
(250,329,o),
(232,410,o),
(231,502,cs),
(226,771,o),
(300,905,o),
(451,905,cs),
(538,905,o),
(600,849,o),
(637,737,c),
(686,747,o),
(711,768,o),
(711,801,cs),
(711,842,o),
(686,890,o),
(635,944,cs),
(600,981,o),
(568,1005,o),
(539,1014,cs)
);
}
);
width = 819;
}
);
note = two_gurungkhema;
unicode = 90418;
},
{
glyphname = three_gurungkhema;
layers = (
{
hints = (
{
horizontal = 1;
place = (905,119);
type = Stem;
},
{
horizontal = 1;
place = (-2,125);
type = Stem;
},
{
place = (582,129);
type = Stem;
}
);
layerId = m01;
shapes = (
{
closed = 1;
nodes = (
(245,1005,o),
(213,981,o),
(178,944,cs),
(127,890,o),
(102,842,o),
(102,801,cs),
(102,768,o),
(127,747,o),
(176,737,c),
(213,849,o),
(275,905,o),
(362,905,cs),
(513,905,o),
(586,771,o),
(582,502,cs),
(581,409,o),
(563,329,o),
(530,260,cs),
(487,171,o),
(425,125,o),
(344,123,cs),
(281,121,o),
(226,176,o),
(178,287,c),
(127,272,o),
(102,248,o),
(102,215,cs),
(102,159,o),
(130,108,o),
(187,63,cs),
(241,20,o),
(297,-2,o),
(354,-2,cs),
(389,-2,o),
(416,2,o),
(434,9,c),
(500,43,l),
(614,134,o),
(684,257,o),
(709,410,c),
(710,449,o),
(710,476,o),
(711,489,cs),
(712,519,o),
(712,536,o),
(711,541,c),
(711,551,o),
(710,567,o),
(709,590,cs),
(703,689,o),
(689,755,o),
(666,788,c),
(618,887,l),
(581,930,o),
(558,956,o),
(551,965,c),
(487,1004,o),
(429,1024,o),
(377,1024,cs),
(328,1024,o),
(294,1021,o),
(274,1014,cs)
);
}
);
width = 819;
}
);
note = three_gurungkhema;
unicode = 90419;
},
{
glyphname = four_gurungkhema;
layers = (
{
hints = (
{
horizontal = 1;
place = (0,109);
type = Stem;
},
{
place = (713,104);
type = Stem;
},
{
place = (100,107);
type = Stem;
}
);
layerId = m01;
shapes = (
{
closed = 1;
nodes = (
(100,322,ls),
(100,269,o),
(112,220,o),
(137,176,cs),
(202,60,o),
(310,1,o),
(463,0,cs),
(588,-1,o),
(678,32,o),
(733,100,cs),
(767,141,o),
(789,175,o),
(799,201,cs),
(811,231,o),
(817,271,o),
(817,322,cs),
(817,1024,l),
(713,1024,l),
(713,324,ls),
(713,286,o),
(707,256,o),
(694,233,cs),
(647,150,o),
(568,109,o),
(457,109,cs),
(310,109,o),
(226,180,o),
(207,322,c),
(207,1024,l),
(100,1024,l)
);
}
);
width = 920;
}
);
note = four_gurungkhema;
unicode = 90420;
},
{
glyphname = five_gurungkhema;
layers = (
{
hints = (
{
horizontal = 1;
place = (915,109);
type = Stem;
},
{
horizontal = 1;
place = (0,21);
target = up;
type = BottomGhost;
},
{
place = (713,104);
type = Stem;
},
{
place = (100,107);
type = Stem;
}
);
layerId = m01;
shapes = (
{
closed = 1;
nodes = (
(100,0,l),
(207,0,l),
(207,702,l),
(226,844,o),
(310,915,o),
(457,915,cs),
(568,915,o),
(647,874,o),
(694,791,cs),
(707,768,o),
(713,738,o),
(713,700,cs),
(713,0,l),
(817,0,l),
(817,702,ls),
(817,753,o),
(811,793,o),
(799,823,cs),
(789,849,o),
(767,883,o),
(733,924,cs),
(678,992,o),
(588,1025,o),
(463,1024,cs),
(310,1023,o),
(202,964,o),
(137,848,cs),
(112,804,o),
(100,755,o),
(100,702,cs)
);
}
);
width = 920;
}
);
note = five_gurungkhema;
unicode = 90421;
},
{
glyphname = six_gurungkhema;
layers = (
{
hints = (
{
horizontal = 1;
place = (907,117);
type = Stem;
},
{
horizontal = 1;
place = (-4,135);
type = Stem;
},
{
place = (653,123);
type = Stem;
},
{
place = (145,136);
type = Stem;
}
);
layerId = m01;
shapes = (
{
closed = 1;
nodes = (
(772,915,o),
(760,931,o),
(737,948,cs),
(667,999,o),
(577,1024,o),
(467,1024,cs),
(340,1024,o),
(245,978,o),
(182,885,cs),
(157,849,o),
(145,810,o),
(145,768,cs),
(145,666,o),
(196,587,o),
(299,530,cs),
(324,516,o),
(391,494,o),
(498,463,cs),
(537,452,o),
(572,429,o),
(603,395,cs),
(636,359,o),
(653,322,o),
(653,283,cs),
(653,269,o),
(650,254,o),
(645,238,cs),
(629,190,o),
(602,159,o),
(565,145,cs),
(540,136,o),
(497,131,o),
(438,131,cs),
(375,131,o),
(291,162,o),
(186,223,c),
(167,201,o),
(158,180,o),
(158,160,cs),
(158,116,o),
(202,76,o),
(289,41,cs),
(363,11,o),
(427,-4,o),
(481,-4,cs),
(538,-4,o),
(591,10,o),
(641,37,cs),
(696,66,o),
(733,105,o),
(754,154,cs),
(769,188,o),
(776,225,o),
(776,264,cs),
(776,381,o),
(717,473,o),
(598,539,cs),
(559,561,o),
(488,590,o),
(387,627,cs),
(316,652,o),
(281,701,o),
(281,774,cs),
(281,819,o),
(304,854,o),
(350,879,cs),
(387,899,o),
(430,908,o),
(479,907,cs),
(530,906,o),
(611,885,o),
(723,844,c),
(756,861,o),
(772,880,o),
(772,899,cs)
);
}
);
width = 819;
}
);
note = six_gurungkhema;
unicode = 90422;
},
{
glyphname = seven_gurungkhema;
layers = (
{
hints = (
{
horizontal = 1;
place = (0,109);
type = Stem;
},
{
place = (713,104);
type = Stem;
},
{
place = (100,107);
type = Stem;
}
);
layerId = m01;
shapes = (
{
closed = 1;
nodes = (
(522,1022,o),
(551,991,o),
(551,928,cs),
(551,875,o),
(514,834,o),
(461,834,cs),
(410,834,o),
(373,877,o),
(373,928,cs),
(373,977,o),
(416,1022,o),
(465,1022,cs)
);
},
{
closed = 1;
nodes = (
(100,322,ls),
(100,269,o),
(112,220,o),
(137,176,cs),
(202,60,o),
(310,1,o),
(463,0,cs),
(588,-1,o),
(678,32,o),
(733,100,cs),
(767,141,o),
(789,175,o),
(799,201,cs),
(811,231,o),
(817,271,o),
(817,322,cs),
(817,1024,l),
(713,1024,l),
(713,324,ls),
(713,286,o),
(707,256,o),
(694,233,cs),
(647,150,o),
(568,109,o),
(457,109,cs),
(310,109,o),
(226,180,o),
(207,322,c),
(207,1024,l),
(100,1024,l)
);
}
);
width = 917;
}
);
note = seven_gurungkhema;
unicode = 90423;
},
{
glyphname = eight_gurungkhema;
layers = (
{
hints = (
{
horizontal = 1;
place = (915,109);
type = Stem;
},
{
horizontal = 1;
place = (8,189);
type = Stem;
},
{
horizontal = 1;
place = (0,21);
target = up;
type = BottomGhost;
},
{
place = (713,104);
type = Stem;
},
{
place = (377,178);
type = Stem;
},
{
place = (100,107);
type = Stem;
}
);
layerId = m01;
shapes = (
{
closed = 1;
nodes = (
(515,8,o),
(555,50,o),
(555,102,cs),
(555,155,o),
(518,197,o),
(465,197,cs),
(414,197,o),
(377,154,o),
(377,102,cs),
(377,39,o),
(406,8,o),
(463,8,cs)
);
},
{
closed = 1;
nodes = (
(100,0,l),
(207,0,l),
(207,702,l),
(226,844,o),
(310,915,o),
(457,915,cs),
(568,915,o),
(647,874,o),
(694,791,cs),
(707,768,o),
(713,738,o),
(713,700,cs),
(713,0,l),
(817,0,l),
(817,702,ls),
(817,753,o),
(811,793,o),
(799,823,cs),
(789,849,o),
(767,883,o),
(733,924,cs),
(678,992,o),
(588,1025,o),
(463,1024,cs),
(310,1023,o),
(202,964,o),
(137,848,cs),
(112,804,o),
(100,755,o),
(100,702,cs)
);
}
);
width = 922;
}
);
note = eight_gurungkhema;
unicode = 90424;
},
{
glyphname = nine_gurungkhema;
layers = (
{
hints = (
{
horizontal = 1;
place = (0,100);
type = Stem;
},
{
horizontal = 1;
place = (-4,121);
type = Stem;
},
{
place = (895,111);
type = Stem;
},
{
place = (505,122);
type = Stem;
},
{
place = (125,113);
type = Stem;
}
);
layerId = m01;
shapes = (
{
closed = 1;
nodes = (
(125,270,l),
(140,132,o),
(178,50,o),
(240,25,cs),
(281,8,o),
(321,0,o),
(362,0,cs),
(458,0,o),
(526,50,o),
(567,150,c),
(590,93,o),
(630,47,o),
(686,12,cs),
(703,1,o),
(734,-4,o),
(780,-4,cs),
(855,-4,o),
(913,22,o),
(952,75,cs),
(988,122,o),
(1006,185,o),
(1006,262,cs),
(1006,643,l),
(1015,732,o),
(1022,784,o),
(1026,797,cs),
(1029,805,o),
(1038,820,o),
(1053,842,cs),
(1094,899,o),
(1150,937,o),
(1223,956,c),
(1179,995,o),
(1139,1014,o),
(1102,1014,cs),
(1075,1014,o),
(1043,1000,o),
(1008,971,cs),
(978,947,o),
(954,921,o),
(936,893,cs),
(909,850,o),
(895,766,o),
(895,639,cs),
(895,270,ls),
(895,189,o),
(867,138,o),
(811,119,cs),
(800,115,o),
(782,114,o),
(758,117,cs),
(733,120,o),
(718,123,o),
(711,127,cs),
(677,147,o),
(655,171,o),
(645,199,cs),
(642,206,o),
(636,240,o),
(627,299,c),
(627,590,l),
(504,590,l),
(506,283,l),
(500,241,o),
(487,203,o),
(467,168,cs),
(441,123,o),
(410,100,o),
(375,100,cs),
(362,100,o),
(347,104,o),
(330,113,cs),
(269,145,o),
(238,198,o),
(238,272,cs),
(240,1022,l),
(125,1022,l)
);
}
);
width = 1292;
}
);
note = nine_gurungkhema;
unicode = 90425;
},
